<svg width="200" height="76" viewBox="0 0 200 76" fill="none" xmlns="http://www.w3.org/2000/svg"><path d="M67.798 18.0921L41.8254 2.49707C38.3713 0.423151 34.037 0.448982 30.6089 2.55981L5.43103 18.0736C2.27034 20.0184 0.350157 23.4503 0.350157 27.1443V41.6359C0.350157 47.5293 5.1599 52.3081 11.0913 52.3081H62.2417C68.1731 52.3081 72.9829 47.5293 72.9829 41.6359V27.2218C72.9829 23.4836 71.0144 20.0184 67.7943 18.0847L67.798 18.0921ZM68.9865 29.7754C68.7897 31.9674 67.7126 33.9233 66.1155 35.3293C64.5185 36.7353 62.394 37.584 60.095 37.584H54.4124L54.3381 48.2673C54.3381 49.0386 53.8553 49.7287 53.1459 50.0128C53.0865 50.0423 53.0196 50.0645 52.9491 50.0866L52.8971 50.1014L50.9063 50.0866C50.832 50.0645 50.7615 50.0423 50.6946 50.0128C50.6352 49.9907 50.5832 49.9685 50.5275 49.9316C50.3678 49.8578 50.2341 49.7508 50.1115 49.6401C49.7438 49.2895 49.5247 48.8024 49.5247 48.271L49.599 32.8568L50.015 32.8125H60.3661C61.4358 32.8125 62.4683 32.3549 63.2 31.5689C63.9391 30.7681 64.2845 29.7275 64.1879 28.6425C64.0133 26.6978 62.2454 25.1848 60.1507 25.1848H12.8332C11.7635 25.1848 10.731 25.6276 9.99933 26.421C9.26023 27.2218 8.90741 28.2698 9.00398 29.3474C9.18597 31.2848 10.9613 32.8125 13.0486 32.8125H44.4735L44.5107 33.2332L44.5255 41.8426C44.5255 45.3372 42.2971 48.4297 39.1141 49.6438C38.5718 49.8541 37.9924 50.0091 37.3945 50.1014L32.9636 50.1087L32.9041 50.0866C32.8521 50.0645 32.8001 50.0497 32.7518 50.0202C32.0796 49.7213 31.6376 49.046 31.6376 48.2968V47.3226C31.6376 46.2819 32.4956 45.4221 33.5429 45.4221H36.1131C38.1039 45.4221 39.7158 43.8205 39.7158 41.8426V37.5914H12.8258C10.4079 37.5914 8.07917 36.5729 6.44497 34.7905C4.78848 32.9933 3.99738 30.6426 4.21651 28.2181C4.60649 23.8304 8.51745 20.4096 13.1081 20.4096H60.3661C62.784 20.4096 65.1127 21.4207 66.7469 23.2031C68.4034 25.0076 69.1945 27.3509 68.9754 29.7828L68.9865 29.7754ZM24.8594 28.8639C24.8594 30.0707 23.8715 31.0486 22.6607 31.0486C21.4499 31.0486 20.4619 30.067 20.4619 28.8639C20.4619 27.6609 21.4499 26.6793 22.6607 26.6793C23.8715 26.6793 24.8594 27.6609 24.8594 28.8639ZM19.0209 28.8639C19.0209 30.0707 18.0329 31.0486 16.8222 31.0486C15.6114 31.0486 14.6234 30.067 14.6234 28.8639C14.6234 27.6609 15.6114 26.6793 16.8222 26.6793C18.0329 26.6793 19.0209 27.6609 19.0209 28.8639ZM185.657 21.4724C186.006 22.0628 186.482 22.465 187.083 22.6791C187.685 22.8931 188.346 23.0001 189.063 23.0001H194.378C195.667 23.0001 196.584 22.6902 197.126 22.0702C197.669 21.4502 197.94 20.476 197.94 19.1549V11.0031C197.94 10.8001 197.839 10.6968 197.639 10.6968H196.554C196.354 10.6968 196.254 10.8001 196.254 11.0031V19.6752C196.254 20.2841 196.135 20.7085 195.901 20.941C195.667 21.1735 195.292 21.2915 194.779 21.2915H188.955C188.628 21.2915 188.335 21.2546 188.071 21.1845C187.808 21.1144 187.581 20.9779 187.399 20.7712C187.217 20.5683 187.072 20.2915 186.972 19.9483C186.872 19.6014 186.82 19.166 186.82 18.6346C186.861 18.4095 186.887 18.0884 186.898 17.6714C186.909 17.2544 186.913 16.9149 186.913 16.6492C186.913 14.472 186.452 12.8445 185.527 11.7633C184.602 10.6858 183.247 10.1433 181.46 10.1433C177.843 10.1433 176.038 12.4128 176.038 16.9518C176.038 17.236 176.041 17.5164 176.053 17.7932C176.064 18.0663 176.079 18.3283 176.097 18.5718C176.097 19.1032 176.034 19.5387 175.911 19.8856C175.789 20.2324 175.637 20.5129 175.451 20.7269C175.265 20.941 175.061 21.0886 174.838 21.1698C174.612 21.251 174.389 21.2915 174.162 21.2915H169.337C168.435 21.2915 167.714 21.0996 167.172 20.7122C166.63 20.3247 166.359 19.7453 166.359 18.9704V15.8853C166.359 14.9701 166.236 14.1878 165.991 13.5346C165.746 12.8851 165.397 12.3501 164.947 11.9331C164.498 11.5161 163.948 11.2061 163.302 11.0031C162.656 10.8001 161.946 10.6968 161.166 10.6968H157.631L163.532 3.76652C163.655 3.6226 163.614 3.48237 163.41 3.33845L162.518 2.63731C162.396 2.53398 162.262 2.56719 162.117 2.72956L155.295 10.6968C155.235 10.6968 155.202 10.7891 155.202 10.9699V12.0991C155.202 12.3021 155.306 12.4054 155.51 12.4054H160.643C161.995 12.4054 162.979 12.6859 163.592 13.2431C164.205 13.804 164.513 14.6528 164.513 15.7931V18.2065C164.513 18.7969 164.483 19.2914 164.42 19.6863C164.357 20.0848 164.231 20.3985 164.038 20.631C163.841 20.8672 163.555 21.0332 163.176 21.1366C162.797 21.2399 162.299 21.2879 161.686 21.2879H116.701C115.799 21.2879 115.078 21.0996 114.536 20.7232C113.994 20.3468 113.723 19.7712 113.723 18.9962V10.9957C113.723 10.7928 113.619 10.6894 113.414 10.6894H112.337C112.133 10.6894 112.029 10.7928 112.029 10.9957V18.7194C112.029 19.1475 112.014 19.5239 111.985 19.8487C111.955 20.1734 111.888 20.4428 111.784 20.6568C111.68 20.8709 111.517 21.0295 111.294 21.1292C111.067 21.2325 110.763 21.2805 110.373 21.2805H104.902C104.04 21.2805 103.372 21.0923 102.889 20.7159C102.406 20.3395 102.168 19.7638 102.168 18.9888V13.6749C102.168 13.4719 102.064 13.3686 101.86 13.3686H100.783C100.579 13.3686 100.475 13.4719 100.475 13.6749V22.4687C100.475 23.3027 100.341 24.0113 100.077 24.5906C99.8135 25.17 99.4532 25.6424 99.0038 26.0114C98.5544 26.3767 98.0196 26.6424 97.3956 26.8048C96.7716 26.9672 96.1142 27.0483 95.4197 27.0483C94.8477 27.0483 94.2497 26.9782 93.6258 26.8343C93.0018 26.6904 92.4261 26.4431 91.895 26.0852C91.3639 25.7272 90.9257 25.2401 90.5765 24.6202C90.2274 24.0002 90.0565 23.2105 90.0565 22.2547C90.0565 21.2989 90.2422 20.417 90.6099 19.5534C90.9776 18.6899 91.3676 17.9408 91.7762 17.3098C91.8802 17.1474 91.8467 17.0145 91.6833 16.9112L90.7288 16.3023C90.5245 16.1805 90.3797 16.1805 90.298 16.3023C89.8003 16.9961 89.3397 17.8707 88.9126 18.9298C88.4855 19.9889 88.2701 21.1587 88.2701 22.4392C88.2701 23.395 88.4224 24.2696 88.7306 25.0667C89.0389 25.8601 89.4846 26.5354 90.0677 27.0963C90.6508 27.6572 91.3788 28.089 92.2479 28.3953C93.117 28.7016 94.1086 28.8529 95.2117 28.8529C96.4002 28.8529 97.4327 28.6905 98.3167 28.3658C99.1969 28.041 99.9212 27.5908 100.482 27.0225C101.047 26.4505 101.466 25.7752 101.741 24.9929C102.016 24.2105 102.157 23.3507 102.157 22.4134V22.0148C102.506 22.3802 102.918 22.6348 103.401 22.7787C103.862 22.9153 104.382 22.9854 104.965 22.9891C104.983 22.9891 104.998 22.9891 105.017 22.9891H110.547C111.327 22.9891 111.918 22.8415 112.33 22.5462C112.738 22.251 113.069 21.8598 113.314 21.3727C113.6 22.0665 114.053 22.5093 114.666 22.7012C115.26 22.8894 115.973 22.9817 116.798 22.9891C116.817 22.9891 116.828 22.9891 116.846 22.9891H162.292C163.213 22.9891 163.963 22.8562 164.535 22.5905C165.107 22.3248 165.538 21.8672 165.828 21.2177C166.073 21.9521 166.533 22.4281 167.209 22.6532C167.804 22.8488 168.468 22.9558 169.204 22.978C169.271 22.9817 169.341 22.9891 169.423 22.9891H174.277C174.849 22.9891 175.384 22.9079 175.882 22.7455C176.376 22.5831 176.81 22.1661 177.189 21.4945C177.638 22.1034 178.236 22.5425 178.983 22.8082C179.73 23.0739 180.554 23.2068 181.453 23.2068C182.352 23.2068 183.161 23.0739 183.878 22.8082C184.595 22.5425 185.186 22.096 185.657 21.465V21.4724ZM184.253 20.3284C183.674 21.1107 182.738 21.5056 181.453 21.5056C180.168 21.5056 179.239 21.1144 178.667 20.3284C178.095 19.5461 177.809 18.3504 177.809 16.7415C177.809 15.1325 178.095 14.0181 178.667 13.1545C179.239 12.291 180.168 11.8556 181.453 11.8556C182.738 11.8556 183.67 12.2947 184.253 13.1693C184.836 14.0439 185.126 15.2358 185.126 16.7415C185.126 18.3504 184.836 19.5461 184.253 20.3284ZM103.747 35.5396H96.9945V50.6106C96.9945 50.8837 96.8979 51.1199 96.7048 51.3118C96.5116 51.5037 96.2776 51.5996 95.9991 51.5996C95.7205 51.5996 95.4865 51.5037 95.2934 51.3118C95.1003 51.1199 95.0037 50.8874 95.0037 50.6106V35.5396H88.1661C87.8913 35.5396 87.6535 35.4437 87.4604 35.2481C87.2673 35.0525 87.1707 34.8163 87.1707 34.5359C87.1707 34.2554 87.2673 34.0192 87.4604 33.8236C87.6535 33.6281 87.8875 33.5321 88.1661 33.5321H103.747C104.025 33.5321 104.259 33.6281 104.452 33.8236C104.645 34.0192 104.742 34.2554 104.742 34.5359C104.742 34.8163 104.645 35.0525 104.452 35.2481C104.259 35.4437 104.025 35.5396 103.747 35.5396ZM106.543 37.6578C104.586 37.6578 102.918 38.3442 101.533 39.7207C100.148 41.0971 99.4569 42.7467 99.4569 44.6693C99.4569 46.5919 100.148 48.271 101.533 49.6475C102.918 51.0239 104.586 51.7103 106.543 51.7103C108.501 51.7103 110.179 50.9575 111.58 49.4556C111.58 50.3191 111.587 50.7951 111.606 50.8837C111.717 51.4335 112.029 51.7103 112.545 51.7103C112.824 51.7103 113.065 51.6217 113.281 51.4483C113.492 51.2749 113.6 51.0424 113.6 50.7472V44.6693C113.6 42.743 112.909 41.0934 111.524 39.7207C110.139 38.3442 108.478 37.6578 106.543 37.6578ZM110.087 48.1898C109.11 49.1603 107.929 49.6475 106.543 49.6475C105.158 49.6475 103.951 49.1603 102.974 48.1898C101.997 47.2193 101.507 46.0458 101.507 44.6693C101.507 43.2928 101.997 42.1157 102.974 41.134C103.951 40.1524 105.143 39.6616 106.543 39.6616C107.944 39.6616 109.106 40.1524 110.087 41.134C111.063 42.1157 111.554 43.2928 111.554 44.6693C111.554 46.0458 111.063 47.2193 110.087 48.1898ZM140.947 45.1084L140.973 50.8283C140.973 51.1014 140.869 51.345 140.661 51.5553C140.453 51.7657 140.212 51.8727 139.937 51.8727C139.647 51.8727 139.398 51.7804 139.201 51.5996C139.001 51.4151 138.908 51.1863 138.927 50.9132V45.1121C138.927 43.7357 138.436 42.5585 137.456 41.5769C136.475 40.5953 135.294 40.1045 133.92 40.1045C132.891 40.1045 131.951 40.3997 131.097 40.9827C130.243 41.5695 129.634 42.3408 129.266 43.2928C129.066 43.7873 128.965 44.1637 128.965 44.4221V50.666C128.965 50.9575 128.858 51.2343 128.646 51.4926C128.434 51.7472 128.185 51.8764 127.903 51.8764C127.621 51.8764 127.379 51.7804 127.183 51.5885C126.986 51.3966 126.9 51.1605 126.919 50.8874V44.3704C126.919 44.0936 126.826 43.7209 126.64 43.2412C126.269 42.2522 125.656 41.4551 124.794 40.8499C123.933 40.2447 122.975 39.9421 121.923 39.9421C120.516 39.9421 119.324 40.4329 118.343 41.4145C117.363 42.3961 116.872 43.5733 116.872 44.9498C116.872 44.9313 116.872 46.8281 116.872 50.6438C116.872 50.9354 116.768 51.19 116.557 51.4003C116.349 51.6107 116.107 51.7177 115.832 51.7177C115.557 51.7177 115.323 51.6218 115.123 51.4299C114.922 51.238 114.822 51.0055 114.822 50.7287V44.9276C114.822 43.0013 115.505 41.3591 116.872 39.9901C118.239 38.6247 119.903 37.942 121.86 37.942C123.097 37.942 124.256 38.2446 125.337 38.8498C126.417 39.455 127.279 40.289 127.925 41.3518C128.553 40.3443 129.392 39.5509 130.447 38.9716C131.498 38.3959 132.635 38.1043 133.857 38.1043C135.814 38.1043 137.485 38.7907 138.871 40.1672C140.256 41.5437 140.947 43.1932 140.947 45.1158V45.1084ZM151.978 38.0268C152.171 38.2187 152.268 38.4549 152.268 38.728C152.268 39.0011 152.167 39.2336 151.963 39.4144L146.953 43.898C148.371 44.3925 149.512 45.2598 150.37 46.496C151.228 47.7322 151.655 49.105 151.655 50.6069C151.655 50.8837 151.547 51.1125 151.328 51.2933C151.109 51.4778 150.864 51.5664 150.589 51.5664C150.314 51.5664 150.084 51.4594 149.894 51.249C149.705 51.0387 149.608 50.7951 149.608 50.5184C149.608 49.1419 149.118 47.961 148.137 46.972C147.157 45.983 145.968 45.4885 144.568 45.4885V50.714C144.568 50.987 144.461 51.2195 144.241 51.4003C144.022 51.5848 143.777 51.6734 143.502 51.6734C143.227 51.6734 142.997 51.5664 142.808 51.3561C142.618 51.1457 142.522 50.9021 142.522 50.6291V33.141C142.522 32.8863 142.622 32.6612 142.823 32.4656C143.023 32.2737 143.261 32.1778 143.532 32.1778C143.803 32.1778 144.048 32.2848 144.256 32.4952C144.464 32.7055 144.568 32.9491 144.568 33.2221V43.47L150.548 38.0084C150.752 37.8239 150.99 37.7316 151.268 37.7316C151.547 37.7316 151.781 37.8276 151.974 38.0195L151.978 38.0268ZM164.268 38.8387C163.079 38.049 161.772 37.6578 160.353 37.6578C158.396 37.6578 156.728 38.3442 155.343 39.7207C153.957 41.0971 153.267 42.7467 153.267 44.6693C153.267 46.5919 153.957 48.271 155.343 49.6475C156.728 51.0239 158.396 51.7103 160.353 51.7103C161.2 51.7103 161.809 51.6992 162.18 51.6845C162.845 51.6291 163.176 51.2896 163.176 50.666C163.176 50.0054 162.827 49.6585 162.125 49.6216H160.353C159.172 49.6216 158.125 49.2637 157.211 48.5515C156.297 47.8392 155.71 46.9204 155.454 45.7985H167.354V43.7098C167.336 43.2891 167.18 42.7208 166.882 42.0049C166.329 40.6838 165.456 39.6321 164.268 38.8424V38.8387ZM155.425 43.7062C155.662 42.5327 156.249 41.5658 157.181 40.8056C158.114 40.0454 159.179 39.6653 160.379 39.6653C161.579 39.6653 162.574 40.0491 163.425 40.8204C164.219 41.5732 164.736 42.5363 164.973 43.7062H155.425ZM180.015 38.8387C178.827 38.049 177.52 37.6578 176.101 37.6578C174.144 37.6578 172.476 38.3442 171.091 39.7207C169.705 41.0971 169.014 42.7467 169.014 44.6693C169.014 46.5919 169.705 48.271 171.091 49.6475C172.476 51.0239 174.144 51.7103 176.101 51.7103C176.948 51.7103 177.557 51.6992 177.928 51.6845C178.593 51.6291 178.924 51.2896 178.924 50.666C178.924 50.0054 178.574 49.6585 177.872 49.6216H176.101C174.92 49.6216 173.872 49.2637 172.959 48.5515C172.045 47.8392 171.458 46.9204 171.202 45.7985H183.102V43.7098C183.083 43.2891 182.927 42.7208 182.63 42.0049C182.077 40.6838 181.204 39.6321 180.015 38.8424V38.8387ZM171.172 43.7062C171.41 42.5327 171.997 41.5658 172.929 40.8056C173.861 40.0454 174.927 39.6653 176.127 39.6653C177.326 39.6653 178.322 40.0491 179.172 40.8204C179.967 41.5732 180.483 42.5363 180.721 43.7062H171.172ZM198.185 44.9424L198.211 50.6623C198.211 50.9354 198.107 51.1789 197.895 51.3893C197.683 51.5996 197.446 51.7066 197.171 51.7066C196.896 51.7066 196.662 51.6144 196.461 51.4336C196.261 51.2527 196.161 51.0202 196.161 50.7472V44.9461C196.161 43.5696 195.67 42.3924 194.694 41.4108C193.717 40.4292 192.536 39.9384 191.15 39.9384C189.765 39.9384 188.558 40.4292 187.581 41.4108C186.604 42.3924 186.114 43.5696 186.114 44.9461C186.114 44.9276 186.114 46.8244 186.114 50.6401C186.114 50.9317 186.01 51.1863 185.798 51.3966C185.59 51.607 185.349 51.714 185.074 51.714C184.799 51.714 184.565 51.6181 184.365 51.4262C184.164 51.2343 184.064 51.0018 184.064 50.725V44.9239C184.064 42.9976 184.747 41.3555 186.114 39.9864C187.481 38.621 189.145 37.9383 191.106 37.9383C193.067 37.9383 194.712 38.6247 196.098 40.0011C197.483 41.3776 198.177 43.0271 198.177 44.9498L198.185 44.9424ZM95.6463 11.1987C95.6463 10.5566 96.1736 10.0326 96.8199 10.0326C97.4661 10.0326 97.9935 10.5566 97.9935 11.1987C97.9935 11.8408 97.4661 12.3648 96.8199 12.3648C96.1736 12.3648 95.6463 11.8408 95.6463 11.1987ZM111.58 28.1001C110.933 28.1001 110.406 27.576 110.406 26.9339C110.406 26.2918 110.933 25.7678 111.58 25.7678C112.226 25.7678 112.753 26.2918 112.753 26.9339C112.753 27.576 112.226 28.1001 111.58 28.1001ZM115.164 28.1001C114.518 28.1001 113.99 27.576 113.99 26.9339C113.99 26.2918 114.518 25.7678 115.164 25.7678C115.81 25.7678 116.337 26.2918 116.337 26.9339C116.337 27.576 115.81 28.1001 115.164 28.1001ZM194.066 6.92538C194.066 6.28328 194.593 5.75926 195.24 5.75926C195.886 5.75926 196.413 6.28328 196.413 6.92538C196.413 7.56748 195.886 8.0915 195.24 8.0915C194.593 8.0915 194.066 7.56748 194.066 6.92538ZM199.997 6.92538C199.997 7.56748 199.47 8.0915 198.824 8.0915C198.177 8.0915 197.65 7.56748 197.65 6.92538C197.65 6.28328 198.177 5.75926 198.824 5.75926C199.47 5.75926 199.997 6.28328 199.997 6.92538ZM3.53683 70.5823V70.2096C3.53683 70.1505 3.57026 70.1247 3.6334 70.1247H3.97139C4.03453 70.1247 4.06794 70.1542 4.06794 70.2096V73.2835C4.06794 73.457 4.1051 73.5751 4.17938 73.6415C4.25366 73.7079 4.36878 73.7411 4.5322 73.7411H5.02247C5.15246 73.7411 5.24532 73.7596 5.31218 73.7928C5.37531 73.826 5.40875 73.8924 5.40875 73.9921C5.40875 74.1065 5.37903 74.1766 5.31589 74.195C5.25647 74.2135 5.15617 74.2246 5.02247 74.2246H4.50251C4.38737 74.2246 4.27224 74.2135 4.1571 74.195C4.04196 74.1766 3.93796 74.1397 3.84882 74.088C3.75969 74.0364 3.68541 73.9626 3.62599 73.8629C3.56656 73.7633 3.54055 73.6378 3.54055 73.4828C3.42541 73.5862 3.28057 73.6673 3.10601 73.7301C2.93144 73.7891 2.70487 73.8223 2.4226 73.8223C1.93977 73.8223 1.55723 73.6969 1.27124 73.4459C0.98526 73.195 0.844115 72.8075 0.844115 72.2909C0.844115 71.9809 0.888698 71.7152 0.974122 71.4975C1.05955 71.2797 1.1821 71.1063 1.3381 70.9698C1.49409 70.8332 1.67979 70.7373 1.89521 70.6745C2.11063 70.6155 2.34462 70.5823 2.60089 70.5823H3.53313H3.53683ZM2.45232 73.3352C2.86459 73.3352 3.14685 73.2503 3.30284 73.0843C3.45883 72.9182 3.53313 72.6894 3.53313 72.4016V71.0694H2.49689C2.14776 71.0694 1.87293 71.158 1.66865 71.3388C1.46438 71.5196 1.3641 71.837 1.3641 72.2909C1.3641 72.6599 1.45695 72.9293 1.63894 73.0917C1.82093 73.2577 2.09205 73.3389 2.44489 73.3389L2.45232 73.3352ZM1.65009 69.5416C1.58695 69.5416 1.55352 69.5121 1.55352 69.4568V68.9364C1.55352 68.8774 1.58695 68.8479 1.65009 68.8479H2.15148C2.21462 68.8479 2.24805 68.8774 2.24805 68.9364V69.4568C2.24805 69.5158 2.21462 69.5416 2.15148 69.5416H1.65009ZM2.88317 69.5416C2.82003 69.5416 2.7866 69.5121 2.7866 69.4568V68.9364C2.7866 68.8774 2.82003 68.8479 2.88317 68.8479H3.38456C3.4477 68.8479 3.48113 68.8774 3.48113 68.9364V69.4568C3.48113 69.5158 3.4477 69.5416 3.38456 69.5416H2.88317ZM5.01134 74.2283C4.88134 74.2283 4.79964 74.2098 4.7625 74.1692C4.72536 74.1286 4.70306 74.0659 4.70306 73.9773C4.70306 73.8629 4.72163 73.7928 4.75506 73.7744C4.7922 73.7559 4.87391 73.7448 5.01134 73.7448H5.98443C6.11442 73.7448 6.20726 73.7596 6.27411 73.7854C6.33725 73.8113 6.37068 73.8666 6.37068 73.9552C6.37068 74.0659 6.34097 74.1397 6.27783 74.1766C6.2184 74.2135 6.11813 74.2319 5.98443 74.2319H5.01134V74.2283ZM7.73375 73.0953C7.73375 73.3131 7.81919 73.4791 7.99004 73.5862C8.16089 73.6932 8.38743 73.7448 8.6697 73.7448H8.72914C8.85914 73.7448 8.952 73.7596 9.01885 73.7928C9.08199 73.826 9.11542 73.8851 9.11542 73.9773C9.11542 74.0696 9.08567 74.136 9.02996 74.1729C8.97425 74.2098 8.87399 74.2283 8.73286 74.2283C8.46173 74.2283 8.23146 74.2024 8.03833 74.1471C7.84519 74.0917 7.70405 73.9663 7.61492 73.7707C7.53692 73.9109 7.43663 74.0216 7.30664 74.1028C7.17665 74.1877 6.99094 74.2283 6.74953 74.2283H5.96958C5.84701 74.2283 5.75786 74.2135 5.70587 74.1803C5.65016 74.1471 5.62415 74.088 5.62415 73.9958C5.62415 73.8961 5.65015 73.8297 5.70215 73.7965C5.75415 73.7633 5.84328 73.7448 5.97327 73.7448H6.69381C6.81637 73.7448 6.91295 73.7301 6.98352 73.7006C7.05408 73.671 7.10607 73.6267 7.13578 73.5677C7.16921 73.5087 7.1878 73.4312 7.19894 73.3389C7.21008 73.2467 7.21379 73.1396 7.21379 73.0179V70.8258C7.21379 70.7668 7.24722 70.741 7.31036 70.741H7.64833C7.71147 70.741 7.7449 70.7705 7.7449 70.8258V73.0953H7.73375ZM6.4524 75.649C6.38926 75.649 6.35583 75.6195 6.35583 75.5604V75.0401C6.35583 74.9811 6.38926 74.9552 6.4524 74.9552H6.9538C7.01694 74.9552 7.05037 74.9848 7.05037 75.0401V75.5604C7.05037 75.6195 7.01694 75.649 6.9538 75.649H6.4524ZM7.68546 75.649C7.62232 75.649 7.58889 75.6195 7.58889 75.5604V75.0401C7.58889 74.9811 7.62232 74.9552 7.68546 74.9552H8.1869C8.25004 74.9552 8.28342 74.9848 8.28342 75.0401V75.5604C8.28342 75.6195 8.25004 75.649 8.1869 75.649H7.68546ZM8.71427 74.2283C8.58428 74.2283 8.5026 74.2098 8.46546 74.1692C8.42832 74.1286 8.40602 74.0659 8.40602 73.9773C8.40602 73.8629 8.42459 73.7928 8.45802 73.7744C8.49516 73.7559 8.57685 73.7448 8.71427 73.7448H9.68736C9.81735 73.7448 9.91022 73.7596 9.97707 73.7854C10.0402 73.8113 10.0736 73.8666 10.0736 73.9552C10.0736 74.0659 10.0439 74.1397 9.98079 74.1766C9.92136 74.2135 9.82107 74.2319 9.68736 74.2319H8.71427V74.2283ZM9.65766 74.2283C9.52767 74.2283 9.44594 74.2098 9.4088 74.1692C9.37166 74.1286 9.34937 74.0659 9.34937 73.9773C9.34937 73.8629 9.36794 73.7928 9.40137 73.7744C9.43851 73.7559 9.52024 73.7448 9.65766 73.7448H10.6308C10.7607 73.7448 10.8536 73.7596 10.9205 73.7854C10.9836 73.8113 11.017 73.8666 11.017 73.9552C11.017 74.0659 10.9873 74.1397 10.9242 74.1766C10.8648 74.2135 10.7645 74.2319 10.6308 74.2319H9.65766V74.2283ZM10.6011 74.2283C10.4711 74.2283 10.3893 74.2098 10.3522 74.1692C10.3151 74.1286 10.2928 74.0659 10.2928 73.9773C10.2928 73.8629 10.3113 73.7928 10.3448 73.7744C10.3819 73.7559 10.4636 73.7448 10.6011 73.7448H11.5741C11.7041 73.7448 11.797 73.7596 11.8638 73.7854C11.927 73.8113 11.9604 73.8666 11.9604 73.9552C11.9604 74.0659 11.9307 74.1397 11.8675 74.1766C11.8081 74.2135 11.7079 74.2319 11.5741 74.2319H10.6011V74.2283ZM11.5444 74.2283C11.4144 74.2283 11.3327 74.2098 11.2956 74.1692C11.2584 74.1286 11.2362 74.0659 11.2362 73.9773C11.2362 73.8629 11.2547 73.7928 11.2882 73.7744C11.3253 73.7559 11.407 73.7448 11.5444 73.7448H12.5175C12.6475 73.7448 12.7404 73.7596 12.8072 73.7854C12.8703 73.8113 12.9038 73.8666 12.9038 73.9552C12.9038 74.0659 12.8741 74.1397 12.8109 74.1766C12.7515 74.2135 12.6512 74.2319 12.5175 74.2319H11.5444V74.2283ZM12.4878 74.2283C12.3578 74.2283 12.2761 74.2098 12.2389 74.1692C12.2018 74.1286 12.1795 74.0659 12.1795 73.9773C12.1795 73.8629 12.1981 73.7928 12.2315 73.7744C12.2686 73.7559 12.3504 73.7448 12.4878 73.7448H13.4609C13.5909 73.7448 13.6837 73.7596 13.7506 73.7854C13.8137 73.8113 13.8472 73.8666 13.8472 73.9552C13.8472 74.0659 13.8175 74.1397 13.7543 74.1766C13.6949 74.2135 13.5946 74.2319 13.4609 74.2319H12.4878V74.2283ZM13.4312 74.2283C13.3012 74.2283 13.2195 74.2098 13.1823 74.1692C13.1452 74.1286 13.1229 74.0659 13.1229 73.9773C13.1229 73.8629 13.1415 73.7928 13.1749 73.7744C13.212 73.7559 13.2938 73.7448 13.4312 73.7448H14.4043C14.5343 73.7448 14.6271 73.7596 14.6939 73.7854C14.7571 73.8113 14.7905 73.8666 14.7905 73.9552C14.7905 74.0659 14.7608 74.1397 14.6977 74.1766C14.6382 74.2135 14.538 74.2319 14.4043 74.2319H13.4312V74.2283ZM14.3745 74.2283C14.2445 74.2283 14.1629 74.2098 14.1257 74.1692C14.0886 74.1286 14.0663 74.0659 14.0663 73.9773C14.0663 73.8629 14.0849 73.7928 14.1183 73.7744C14.1554 73.7559 14.2371 73.7448 14.3745 73.7448H15.3476C15.4776 73.7448 15.5705 73.7596 15.6373 73.7854C15.7005 73.8113 15.7339 73.8666 15.7339 73.9552C15.7339 74.0659 15.7042 74.1397 15.6411 74.1766C15.5816 74.2135 15.4813 74.2319 15.3476 74.2319H14.3745V74.2283ZM15.3179 74.2283C15.1879 74.2283 15.1062 74.2098 15.0691 74.1692C15.0319 74.1286 15.0097 74.0659 15.0097 73.9773C15.0097 73.8629 15.0282 73.7928 15.0616 73.7744C15.0988 73.7559 15.1805 73.7448 15.3179 73.7448H16.291C16.421 73.7448 16.5139 73.7596 16.5807 73.7854C16.6439 73.8113 16.6773 73.8666 16.6773 73.9552C16.6773 74.0659 16.6476 74.1397 16.5844 74.1766C16.525 74.2135 16.4247 74.2319 16.291 74.2319H15.3179V74.2283ZM16.2613 74.2283C16.1313 74.2283 16.0496 74.2098 16.0125 74.1692C15.9753 74.1286 15.953 74.0659 15.953 73.9773C15.953 73.8629 15.9716 73.7928 16.005 73.7744C16.0422 73.7559 16.1239 73.7448 16.2613 73.7448H17.2344C17.3644 73.7448 17.4572 73.7596 17.5241 73.7854C17.5872 73.8113 17.6206 73.8666 17.6206 73.9552C17.6206 74.0659 17.5909 74.1397 17.5278 74.1766C17.4684 74.2135 17.3681 74.2319 17.2344 74.2319H16.2613V74.2283ZM17.2047 74.2283C17.0747 74.2283 16.993 74.2098 16.9559 74.1692C16.9187 74.1286 16.8964 74.0659 16.8964 73.9773C16.8964 73.8629 16.915 73.7928 16.9484 73.7744C16.9856 73.7559 17.0673 73.7448 17.2047 73.7448H18.1778C18.3078 73.7448 18.4006 73.7596 18.4675 73.7854C18.5306 73.8113 18.564 73.8666 18.564 73.9552C18.564 74.0659 18.5343 74.1397 18.4712 74.1766C18.4118 74.2135 18.3115 74.2319 18.1778 74.2319H17.2047V74.2283ZM18.1481 74.2283C18.0181 74.2283 17.9363 74.2098 17.8992 74.1692C17.8621 74.1286 17.8398 74.0659 17.8398 73.9773C17.8398 73.8629 17.8583 73.7928 17.8918 73.7744C17.9289 73.7559 18.0106 73.7448 18.1481 73.7448H19.1212C19.2512 73.7448 19.344 73.7596 19.4109 73.7854C19.474 73.8113 19.5074 73.8666 19.5074 73.9552C19.5074 74.0659 19.4777 74.1397 19.4146 74.1766C19.3552 74.2135 19.2549 74.2319 19.1212 74.2319H18.1481V74.2283ZM19.0915 74.2283C18.9615 74.2283 18.8797 74.2098 18.8426 74.1692C18.8055 74.1286 18.7832 74.0659 18.7832 73.9773C18.7832 73.8629 18.8017 73.7928 18.8352 73.7744C18.8723 73.7559 18.954 73.7448 19.0915 73.7448H20.0646C20.1945 73.7448 20.2874 73.7596 20.3542 73.7854C20.4174 73.8113 20.4508 73.8666 20.4508 73.9552C20.4508 74.0659 20.4211 74.1397 20.3579 74.1766C20.2985 74.2135 20.1983 74.2319 20.0646 74.2319H19.0915V74.2283ZM20.0348 74.2283C19.9048 74.2283 19.8231 74.2098 19.786 74.1692C19.7489 74.1286 19.7266 74.0659 19.7266 73.9773C19.7266 73.8629 19.7451 73.7928 19.7786 73.7744C19.8157 73.7559 19.8974 73.7448 20.0348 73.7448H21.0079C21.1379 73.7448 21.2308 73.7596 21.2976 73.7854C21.3607 73.8113 21.3942 73.8666 21.3942 73.9552C21.3942 74.0659 21.3645 74.1397 21.3013 74.1766C21.2419 74.2135 21.1416 74.2319 21.0079 74.2319H20.0348V74.2283ZM20.9782 74.2283C20.8482 74.2283 20.7665 74.2098 20.7293 74.1692C20.6922 74.1286 20.6699 74.0659 20.6699 73.9773C20.6699 73.8629 20.6885 73.7928 20.722 73.7744C20.7591 73.7559 20.8408 73.7448 20.9782 73.7448H21.9513C22.0813 73.7448 22.1741 73.7596 22.241 73.7854C22.3041 73.8113 22.3376 73.8666 22.3376 73.9552C22.3376 74.0659 22.3079 74.1397 22.2447 74.1766C22.1853 74.2135 22.085 74.2319 21.9513 74.2319H20.9782V74.2283ZM21.9327 74.2283C21.8027 74.2283 21.7099 74.2135 21.643 74.184C21.5762 74.1544 21.5465 74.0917 21.5465 73.9921C21.5465 73.8814 21.5762 73.8149 21.6393 73.7854C21.6987 73.7559 21.799 73.7411 21.9327 73.7411H22.6347C22.7944 73.7411 22.9169 73.7079 23.0061 73.6378C23.0915 73.5677 23.1361 73.4496 23.1361 73.2835V68.4235C23.1361 68.3644 23.1695 68.3386 23.2326 68.3386H23.5706C23.6338 68.3386 23.6672 68.3681 23.6672 68.4235V73.1359C23.6672 73.3204 23.6523 73.4828 23.6189 73.6194C23.5855 73.7596 23.5298 73.874 23.4444 73.9626C23.3627 74.0511 23.2475 74.1175 23.1026 74.1618C22.9578 74.2061 22.7721 74.2283 22.5381 74.2283H21.9327ZM26.0331 73.0953C26.0331 73.3131 26.1185 73.4791 26.2894 73.5862C26.4602 73.6932 26.6868 73.7448 26.969 73.7448H27.0173C27.1473 73.7448 27.2402 73.7596 27.307 73.7928C27.3702 73.826 27.4036 73.8814 27.4036 73.9626C27.4036 74.0954 27.3739 74.1729 27.3107 74.195C27.2513 74.2172 27.151 74.2283 27.0173 74.2283C26.8056 74.2283 26.6199 74.2135 26.4602 74.184C26.3005 74.1544 26.1594 74.0806 26.0368 73.9589V74.6526C26.0368 75.0622 25.9254 75.3759 25.6988 75.5973C25.4722 75.8151 25.1231 75.9258 24.6403 75.9258H24.4769C24.4138 75.9258 24.3803 75.8962 24.3803 75.8409V75.5309C24.3803 75.4719 24.4138 75.4424 24.4769 75.4424H24.6997C24.9634 75.4424 25.164 75.3833 25.3014 75.2615C25.4388 75.1397 25.5094 74.9552 25.5094 74.708V70.8258C25.5094 70.7668 25.5428 70.741 25.6059 70.741H25.9439C26.0071 70.741 26.0405 70.7705 26.0405 70.8258V73.0953H26.0331ZM25.5725 69.8922C25.5094 69.8922 25.476 69.8627 25.476 69.8073V69.287C25.476 69.228 25.5094 69.1984 25.5725 69.1984H25.9588C26.0219 69.1984 26.0554 69.228 26.0554 69.287V69.8073C26.0554 69.8664 26.0219 69.8922 25.9588 69.8922H25.5725ZM27.0062 74.2319C26.8762 74.2319 26.7945 74.2135 26.7573 74.1729C26.7202 74.1323 26.6979 74.0696 26.6979 73.981C26.6979 73.8666 26.7165 73.7965 26.7499 73.778C26.7871 73.7596 26.8687 73.7485 27.0062 73.7485H27.9792C28.1092 73.7485 28.2021 73.7633 28.269 73.7891C28.3321 73.8149 28.3655 73.8703 28.3655 73.9589C28.3655 74.0696 28.3358 74.1434 28.2727 74.1803C28.2133 74.2172 28.113 74.2356 27.9792 74.2356H27.0062V74.2319ZM29.6914 73.099C29.6914 73.3168 29.7769 73.4828 29.9477 73.5898C30.1186 73.6969 30.3451 73.7485 30.6274 73.7485H30.6868C30.8168 73.7485 30.9097 73.7633 30.9765 73.7965C31.0397 73.8297 31.0731 73.8887 31.0731 73.981C31.0731 74.0733 31.0434 74.1397 30.9877 74.1766C30.9319 74.2135 30.8317 74.2319 30.6906 74.2319C30.4194 74.2319 30.1892 74.2061 29.996 74.1508C29.8029 74.0954 29.6617 73.9699 29.5726 73.7744C29.4946 73.9146 29.3944 74.0253 29.2644 74.1065C29.1344 74.1913 28.9487 74.2319 28.7072 74.2319H27.9644C27.8419 74.2319 27.749 74.2172 27.6821 74.184C27.6153 74.1508 27.5819 74.0917 27.5819 73.9995C27.5819 73.8998 27.6153 73.8334 27.6784 73.8002C27.7416 73.767 27.8381 73.7485 27.9681 73.7485H28.6515C28.7741 73.7485 28.8706 73.7338 28.9412 73.7042C29.0118 73.6747 29.0638 73.6304 29.0935 73.5714C29.1269 73.5123 29.1455 73.4349 29.1566 73.3426C29.1678 73.2503 29.1715 73.1433 29.1715 73.0215V70.8295C29.1715 70.7705 29.2049 70.7447 29.268 70.7447H29.606C29.6692 70.7447 29.7026 70.7742 29.7026 70.8295V73.099H29.6914ZM29.2309 69.8959C29.1678 69.8959 29.1343 69.8664 29.1343 69.811V69.2907C29.1343 69.2316 29.1678 69.2021 29.2309 69.2021H29.6172C29.6803 69.2021 29.7137 69.2316 29.7137 69.2907V69.811C29.7137 69.8701 29.6803 69.8959 29.6172 69.8959H29.2309ZM30.6757 74.2356C30.5457 74.2356 30.464 74.2172 30.4268 74.1766C30.3897 74.136 30.3674 74.0733 30.3674 73.9847C30.3674 73.8703 30.386 73.8002 30.4194 73.7817C30.4566 73.7633 30.5383 73.7522 30.6757 73.7522H31.6488C31.7788 73.7522 31.8716 73.767 31.9385 73.7928C32.0016 73.8186 32.0351 73.874 32.0351 73.9626C32.0351 74.0733 32.0053 74.1471 31.9422 74.184C31.8828 74.2209 31.7825 74.2393 31.6488 74.2393H30.6757V74.2356ZM31.6191 74.2356C31.4891 74.2356 31.4074 74.2172 31.3702 74.1766C31.3331 74.136 31.3108 74.0733 31.3108 73.9847C31.3108 73.8703 31.3294 73.8002 31.3628 73.7817C31.3999 73.7633 31.4817 73.7522 31.6191 73.7522H32.5922C32.7222 73.7522 32.815 73.767 32.8819 73.7928C32.945 73.8186 32.9784 73.874 32.9784 73.9626C32.9784 74.0733 32.9487 74.1471 32.8856 74.184C32.8262 74.2209 32.7259 74.2393 32.5922 74.2393H31.6191V74.2356ZM32.5624 74.2356C32.4324 74.2356 32.3507 74.2172 32.3136 74.1766C32.2765 74.136 32.2542 74.0733 32.2542 73.9847C32.2542 73.8703 32.2727 73.8002 32.3062 73.7817C32.3433 73.7633 32.425 73.7522 32.5624 73.7522H33.5356C33.6656 73.7522 33.7584 73.767 33.8252 73.7928C33.8884 73.8186 33.9218 73.874 33.9218 73.9626C33.9218 74.0733 33.8921 74.1471 33.8289 74.184C33.7695 74.2209 33.6693 74.2393 33.5356 74.2393H32.5624V74.2356ZM33.5058 74.2356C33.3758 74.2356 33.2941 74.2172 33.257 74.1766C33.2199 74.136 33.1976 74.0733 33.1976 73.9847C33.1976 73.8703 33.2161 73.8002 33.2496 73.7817C33.2867 73.7633 33.3684 73.7522 33.5058 73.7522H34.4789C34.6089 73.7522 34.7018 73.767 34.7686 73.7928C34.8318 73.8186 34.8652 73.874 34.8652 73.9626C34.8652 74.0733 34.8355 74.1471 34.7723 74.184C34.7129 74.2209 34.6126 74.2393 34.4789 74.2393H33.5058V74.2356ZM34.4492 74.2356C34.3192 74.2356 34.2375 74.2172 34.2004 74.1766C34.1632 74.136 34.1409 74.0733 34.1409 73.9847C34.1409 73.8703 34.1595 73.8002 34.1929 73.7817C34.2301 73.7633 34.3118 73.7522 34.4492 73.7522H35.4223C35.5523 73.7522 35.6452 73.767 35.712 73.7928C35.7752 73.8186 35.8086 73.874 35.8086 73.9626C35.8086 74.0733 35.7789 74.1471 35.7157 74.184C35.6563 74.2209 35.556 74.2393 35.4223 74.2393H34.4492V74.2356ZM35.3926 74.2356C35.2626 74.2356 35.1809 74.2172 35.1437 74.1766C35.1066 74.136 35.0843 74.0733 35.0843 73.9847C35.0843 73.8703 35.1029 73.8002 35.1363 73.7817C35.1735 73.7633 35.2552 73.7522 35.3926 73.7522H36.3657C36.4957 73.7522 36.5885 73.767 36.6554 73.7928C36.7185 73.8186 36.7519 73.874 36.7519 73.9626C36.7519 74.0733 36.7222 74.1471 36.6591 74.184C36.5997 74.2209 36.4994 74.2393 36.3657 74.2393H35.3926V74.2356ZM36.336 74.2356C36.206 74.2356 36.1243 74.2172 36.0871 74.1766C36.05 74.136 36.0277 74.0733 36.0277 73.9847C36.0277 73.8703 36.0463 73.8002 36.0797 73.7817C36.1168 73.7633 36.1985 73.7522 36.336 73.7522H37.309C37.439 73.7522 37.5319 73.767 37.5988 73.7928C37.6619 73.8186 37.6953 73.874 37.6953 73.9626C37.6953 74.0733 37.6656 74.1471 37.6025 74.184C37.543 74.2209 37.4427 74.2393 37.309 74.2393H36.336V74.2356ZM37.2793 74.2356C37.1493 74.2356 37.0676 74.2172 37.0305 74.1766C36.9933 74.136 36.9711 74.0733 36.9711 73.9847C36.9711 73.8703 36.9896 73.8002 37.023 73.7817C37.0602 73.7633 37.1419 73.7522 37.2793 73.7522H38.2524C38.3824 73.7522 38.4753 73.767 38.5421 73.7928C38.6053 73.8186 38.6387 73.874 38.6387 73.9626C38.6387 74.0733 38.609 74.1471 38.5459 74.184C38.4864 74.2209 38.3861 74.2393 38.2524 74.2393H37.2793V74.2356ZM38.2227 74.2356C38.0927 74.2356 38.011 74.2172 37.9739 74.1766C37.9367 74.136 37.9144 74.0733 37.9144 73.9847C37.9144 73.8703 37.933 73.8002 37.9664 73.7817C38.0036 73.7633 38.0853 73.7522 38.2227 73.7522H39.1958C39.3258 73.7522 39.4186 73.767 39.4855 73.7928C39.5486 73.8186 39.5821 73.874 39.5821 73.9626C39.5821 74.0733 39.5524 74.1471 39.4892 74.184C39.4298 74.2209 39.3295 74.2393 39.1958 74.2393H38.2227V74.2356ZM39.1661 74.2356C39.0361 74.2356 38.9544 74.2172 38.9173 74.1766C38.8801 74.136 38.8578 74.0733 38.8578 73.9847C38.8578 73.8703 38.8764 73.8002 38.9098 73.7817C38.947 73.7633 39.0287 73.7522 39.1661 73.7522H40.1392C40.2692 73.7522 40.362 73.767 40.4289 73.7928C40.492 73.8186 40.5255 73.874 40.5255 73.9626C40.5255 74.0733 40.4957 74.1471 40.4326 74.184C40.3732 74.2209 40.2729 74.2393 40.1392 74.2393H39.1661V74.2356ZM44.6147 72.9957C44.6147 73.147 44.6295 73.2688 44.663 73.3684C44.6964 73.4681 44.7409 73.5456 44.7967 73.6009C44.8524 73.66 44.9229 73.6969 45.0083 73.719C45.09 73.7411 45.1829 73.7485 45.2869 73.7485H45.4875C45.6138 73.7485 45.7103 73.767 45.7735 73.8002C45.8366 73.8334 45.87 73.8998 45.87 73.9995C45.87 74.0991 45.8403 74.1618 45.7772 74.1913C45.714 74.2209 45.6175 74.2356 45.4838 74.2356H45.3204C45.0975 74.2356 44.8895 74.2061 44.7001 74.1434C44.5107 74.0843 44.3621 73.9699 44.2544 73.8002C44.1059 73.981 43.9202 74.1065 43.6973 74.1803C43.4745 74.2541 43.2182 74.2947 42.9396 74.2947C42.6611 74.2947 42.4011 74.2578 42.1671 74.1803C41.9331 74.1065 41.7474 73.981 41.6063 73.8076C41.4874 73.9995 41.3537 74.1175 41.1977 74.1618C41.0417 74.2098 40.8746 74.2319 40.6963 74.2319H40.1281C39.9981 74.2319 39.9052 74.2172 39.8384 74.1877C39.7715 74.1581 39.7418 74.0954 39.7418 73.9958C39.7418 73.8814 39.7715 73.8113 39.8346 73.7854C39.8941 73.7596 39.9944 73.7448 40.1281 73.7448H40.6554C40.726 73.7448 40.7966 73.7338 40.8672 73.7116C40.9377 73.6895 41.0008 73.6452 41.0603 73.5862C41.1197 73.5271 41.1643 73.4459 41.2051 73.3463C41.2423 73.2466 41.2646 73.1249 41.2646 72.9736C41.2571 72.9035 41.2534 72.8296 41.2497 72.7522C41.246 72.6747 41.246 72.5935 41.246 72.5123C41.246 71.2244 41.8105 70.5823 42.9433 70.5823C43.5042 70.5823 43.9275 70.7336 44.2172 71.0399C44.5069 71.3462 44.6518 71.8074 44.6518 72.4274C44.6518 72.5012 44.6518 72.6009 44.6481 72.7189C44.6481 72.837 44.637 72.9293 44.6258 72.992L44.6147 72.9957ZM42.9359 71.0731C42.5348 71.0731 42.2414 71.1949 42.0631 71.4421C41.8848 71.6894 41.7957 72.0252 41.7957 72.4606C41.7957 72.9182 41.8848 73.2577 42.0631 73.4791C42.2414 73.7005 42.5311 73.8113 42.9359 73.8113C43.3407 73.8113 43.6304 73.7005 43.8124 73.4791C43.9944 73.2577 44.0873 72.9182 44.0873 72.4606C44.0873 72.0325 43.9944 71.6967 43.8124 71.4458C43.6304 71.1986 43.337 71.0731 42.9359 71.0731ZM45.4615 74.2356C45.3315 74.2356 45.2498 74.2172 45.2126 74.1766C45.1755 74.136 45.1532 74.0733 45.1532 73.9847C45.1532 73.8703 45.1718 73.8002 45.2052 73.7817C45.2423 73.7633 45.3241 73.7522 45.4615 73.7522H46.4346C46.5646 73.7522 46.6574 73.767 46.7242 73.7928C46.7874 73.8186 46.8208 73.874 46.8208 73.9626C46.8208 74.0733 46.7911 74.1471 46.728 74.184C46.6685 74.2209 46.5683 74.2393 46.4346 74.2393H45.4615V74.2356ZM46.416 74.2356C46.286 74.2356 46.1931 74.2209 46.1263 74.1913C46.0594 74.1618 46.0297 74.0991 46.0297 73.9995C46.0297 73.8887 46.0594 73.8223 46.1226 73.7928C46.182 73.7633 46.2823 73.7485 46.416 73.7485H47.118C47.2777 73.7485 47.4002 73.7153 47.4894 73.6452C47.5785 73.5751 47.6194 73.457 47.6194 73.2909V68.4309C47.6194 68.3718 47.6528 68.346 47.7159 68.346H48.0539C48.1171 68.346 48.1505 68.3755 48.1505 68.4309V73.1433C48.1505 73.3278 48.1356 73.4902 48.1022 73.6267C48.0688 73.767 48.0131 73.8814 47.9277 73.9699C47.8459 74.0585 47.7308 74.1249 47.5859 74.1692C47.4411 74.2135 47.2554 74.2356 47.0214 74.2356H46.416ZM50.1227 74.1471C50.1227 74.2061 50.0892 74.2356 50.0261 74.2356H49.6881C49.625 74.2356 49.5916 74.2061 49.5916 74.1471V68.4309C49.5916 68.3718 49.625 68.346 49.6881 68.346H50.0261C50.0892 68.346 50.1227 68.3755 50.1227 68.4309V74.1471ZM55.3447 74.2947C54.795 74.2947 54.3753 74.1434 54.0856 73.8445C53.7959 73.5455 53.6548 73.0732 53.6548 72.4311C53.6548 71.2022 54.2193 70.586 55.3447 70.586C56.4701 70.586 57.0346 71.2022 57.0346 72.4311C57.0346 73.0732 56.8935 73.5419 56.6075 73.8445C56.3215 74.1434 55.9018 74.2947 55.3447 74.2947ZM55.3558 71.0731C54.9547 71.0731 54.6613 71.1949 54.483 71.4421C54.3047 71.6894 54.2156 72.0252 54.2156 72.4606C54.2156 72.9182 54.3047 73.2577 54.483 73.4791C54.6613 73.7005 54.951 73.8113 55.3558 73.8113C55.7607 73.8113 56.0504 73.7005 56.2324 73.4791C56.4143 73.2577 56.5072 72.9182 56.5072 72.4606C56.5072 72.0325 56.4143 71.6967 56.2324 71.4458C56.0504 71.1986 55.757 71.0731 55.3558 71.0731ZM54.483 69.8959C54.4198 69.8959 54.3864 69.8664 54.3864 69.811V69.2907C54.3864 69.2316 54.4198 69.2021 54.483 69.2021H54.9844C55.0476 69.2021 55.0809 69.2316 55.0809 69.2907V69.811C55.0809 69.8701 55.0476 69.8959 54.9844 69.8959H54.483ZM55.7161 69.8959C55.653 69.8959 55.6195 69.8664 55.6195 69.811V69.2907C55.6195 69.2316 55.653 69.2021 55.7161 69.2021H56.2175C56.2806 69.2021 56.3141 69.2316 56.3141 69.2907V69.811C56.3141 69.8701 56.2806 69.8959 56.2175 69.8959H55.7161ZM59.2593 73.099C59.2593 73.3168 59.3447 73.4828 59.5156 73.5898C59.6864 73.6969 59.913 73.7485 60.1953 73.7485H60.2435C60.3735 73.7485 60.4664 73.7633 60.5333 73.7965C60.5964 73.8297 60.6298 73.8851 60.6298 73.9662C60.6298 74.0991 60.6001 74.1766 60.537 74.1987C60.4775 74.2209 60.3773 74.2319 60.2435 74.2319C60.0318 74.2319 59.8461 74.2172 59.6864 74.1877C59.5267 74.1581 59.3856 74.0843 59.263 73.9626V74.6563C59.263 75.0659 59.1516 75.3796 58.9251 75.601C58.6985 75.8188 58.3493 75.9295 57.8665 75.9295H57.7031C57.64 75.9295 57.6065 75.8999 57.6065 75.8446V75.5346C57.6065 75.4756 57.64 75.446 57.7031 75.446H57.926C58.1897 75.446 58.3902 75.387 58.5276 75.2652C58.6651 75.1434 58.7356 74.9589 58.7356 74.7117V70.8295C58.7356 70.7705 58.7691 70.7447 58.8322 70.7447H59.1702C59.2333 70.7447 59.2667 70.7742 59.2667 70.8295V73.099H59.2593ZM58.7988 69.8959C58.7356 69.8959 58.7022 69.8664 58.7022 69.811V69.2907C58.7022 69.2316 58.7356 69.2021 58.7988 69.2021H59.185C59.2482 69.2021 59.2816 69.2316 59.2816 69.2907V69.811C59.2816 69.8701 59.2482 69.8959 59.185 69.8959H58.7988ZM60.2324 74.2356C60.1024 74.2356 60.0207 74.2172 59.9836 74.1766C59.9464 74.136 59.9241 74.0733 59.9241 73.9847C59.9241 73.8703 59.9427 73.8002 59.9761 73.7817C60.0133 73.7633 60.095 73.7522 60.2324 73.7522H61.2055C61.3355 73.7522 61.4283 73.767 61.4952 73.7928C61.5583 73.8186 61.5918 73.874 61.5918 73.9626C61.5918 74.0733 61.562 74.1471 61.4989 74.184C61.4395 74.2209 61.3392 74.2393 61.2055 74.2393H60.2324V74.2356ZM61.1758 74.2356C61.0458 74.2356 60.9641 74.2172 60.927 74.1766C60.8898 74.136 60.8675 74.0733 60.8675 73.9847C60.8675 73.8703 60.8861 73.8002 60.9195 73.7817C60.9567 73.7633 61.0384 73.7522 61.1758 73.7522H62.1489C62.2789 73.7522 62.3717 73.767 62.4386 73.7928C62.5017 73.8186 62.5352 73.874 62.5352 73.9626C62.5352 74.0733 62.5054 74.1471 62.4423 74.184C62.3829 74.2209 62.2826 74.2393 62.1489 74.2393H61.1758V74.2356ZM62.1192 74.2356C61.9892 74.2356 61.9075 74.2172 61.8703 74.1766C61.8332 74.136 61.8109 74.0733 61.8109 73.9847C61.8109 73.8703 61.8295 73.8002 61.8629 73.7817C61.9 73.7633 61.9818 73.7522 62.1192 73.7522H63.0923C63.2223 73.7522 63.3151 73.767 63.382 73.7928C63.4451 73.8186 63.4785 73.874 63.4785 73.9626C63.4785 74.0733 63.4488 74.1471 63.3857 74.184C63.3263 74.2209 63.226 74.2393 63.0923 74.2393H62.1192V74.2356ZM63.0626 74.2356C62.9326 74.2356 62.8508 74.2172 62.8137 74.1766C62.7766 74.136 62.7543 74.0733 62.7543 73.9847C62.7543 73.8703 62.7728 73.8002 62.8063 73.7817C62.8434 73.7633 62.9251 73.7522 63.0626 73.7522H64.0357C64.1656 73.7522 64.2585 73.767 64.3253 73.7928C64.3885 73.8186 64.4219 73.874 64.4219 73.9626C64.4219 74.0733 64.3922 74.1471 64.329 74.184C64.2696 74.2209 64.1694 74.2393 64.0357 74.2393H63.0626V74.2356ZM64.0059 74.2356C63.8759 74.2356 63.7942 74.2172 63.7571 74.1766C63.72 74.136 63.6977 74.0733 63.6977 73.9847C63.6977 73.8703 63.7162 73.8002 63.7497 73.7817C63.7868 73.7633 63.8685 73.7522 64.0059 73.7522H64.979C65.109 73.7522 65.2019 73.767 65.2687 73.7928C65.3319 73.8186 65.3653 73.874 65.3653 73.9626C65.3653 74.0733 65.3356 74.1471 65.2724 74.184C65.213 74.2209 65.1127 74.2393 64.979 74.2393H64.0059V74.2356ZM64.9493 74.2356C64.8193 74.2356 64.7376 74.2172 64.7004 74.1766C64.6633 74.136 64.6411 74.0733 64.6411 73.9847C64.6411 73.8703 64.6596 73.8002 64.693 73.7817C64.7302 73.7633 64.8119 73.7522 64.9493 73.7522H65.9224C66.0524 73.7522 66.1453 73.767 66.2121 73.7928C66.2753 73.8186 66.3087 73.874 66.3087 73.9626C66.3087 74.0733 66.279 74.1471 66.2158 74.184C66.1564 74.2209 66.0561 74.2393 65.9224 74.2393H64.9493V74.2356ZM65.8927 74.2356C65.7627 74.2356 65.681 74.2172 65.6438 74.1766C65.6067 74.136 65.5844 74.0733 65.5844 73.9847C65.5844 73.8703 65.603 73.8002 65.6364 73.7817C65.6735 73.7633 65.7553 73.7522 65.8927 73.7522H66.8658C66.9958 73.7522 67.0886 73.767 67.1555 73.7928C67.2186 73.8186 67.252 73.874 67.252 73.9626C67.252 74.0733 67.2223 74.1471 67.1592 74.184C67.0998 74.2209 66.9995 74.2393 66.8658 74.2393H65.8927V74.2356ZM66.8361 74.2356C66.7061 74.2356 66.6244 74.2172 66.5872 74.1766C66.5501 74.136 66.5278 74.0733 66.5278 73.9847C66.5278 73.8703 66.5464 73.8002 66.5798 73.7817C66.6169 73.7633 66.6986 73.7522 66.8361 73.7522H67.8091C67.9391 73.7522 68.032 73.767 68.0988 73.7928C68.162 73.8186 68.1954 73.874 68.1954 73.9626C68.1954 74.0733 68.1657 74.1471 68.1026 74.184C68.0431 74.2209 67.9428 74.2393 67.8091 74.2393H66.8361V74.2356ZM67.7794 74.2356C67.6495 74.2356 67.5677 74.2172 67.5306 74.1766C67.4934 74.136 67.4712 74.0733 67.4712 73.9847C67.4712 73.8703 67.4897 73.8002 67.5231 73.7817C67.5603 73.7633 67.642 73.7522 67.7794 73.7522H68.7525C68.8825 73.7522 68.9754 73.767 69.0422 73.7928C69.1054 73.8186 69.1388 73.874 69.1388 73.9626C69.1388 74.0733 69.1091 74.1471 69.046 74.184C68.9865 74.2209 68.8862 74.2393 68.7525 74.2393H67.7794V74.2356ZM68.7228 74.2356C68.5928 74.2356 68.5111 74.2172 68.474 74.1766C68.4368 74.136 68.4145 74.0733 68.4145 73.9847C68.4145 73.8703 68.4331 73.8002 68.4665 73.7817C68.5037 73.7633 68.5854 73.7522 68.7228 73.7522H69.6959C69.8259 73.7522 69.9187 73.767 69.9856 73.7928C70.0487 73.8186 70.0822 73.874 70.0822 73.9626C70.0822 74.0733 70.0525 74.1471 69.9893 74.184C69.9299 74.2209 69.8296 74.2393 69.6959 74.2393H68.7228V74.2356ZM69.6662 74.2356C69.5362 74.2356 69.4545 74.2172 69.4174 74.1766C69.3802 74.136 69.3579 74.0733 69.3579 73.9847C69.3579 73.8703 69.3765 73.8002 69.4099 73.7817C69.4471 73.7633 69.5288 73.7522 69.6662 73.7522H70.6393C70.7693 73.7522 70.8621 73.767 70.929 73.7928C70.9921 73.8186 71.0256 73.874 71.0256 73.9626C71.0256 74.0733 70.9958 74.1471 70.9327 74.184C70.8733 74.2209 70.773 74.2393 70.6393 74.2393H69.6662V74.2356ZM70.6096 74.2356C70.4796 74.2356 70.3979 74.2172 70.3607 74.1766C70.3236 74.136 70.3013 74.0733 70.3013 73.9847C70.3013 73.8703 70.3199 73.8002 70.3533 73.7817C70.3904 73.7633 70.4722 73.7522 70.6096 73.7522H71.5827C71.7127 73.7522 71.8055 73.767 71.8724 73.7928C71.9355 73.8186 71.9689 73.874 71.9689 73.9626C71.9689 74.0733 71.9392 74.1471 71.8761 74.184C71.8167 74.2209 71.7164 74.2393 71.5827 74.2393H70.6096V74.2356ZM71.553 74.2356C71.423 74.2356 71.3412 74.2172 71.3041 74.1766C71.267 74.136 71.2447 74.0733 71.2447 73.9847C71.2447 73.8703 71.2633 73.8002 71.2967 73.7817C71.3338 73.7633 71.4156 73.7522 71.553 73.7522H72.5261C72.6561 73.7522 72.7489 73.767 72.8157 73.7928C72.8789 73.8186 72.9123 73.874 72.9123 73.9626C72.9123 74.0733 72.8826 74.1471 72.8194 74.184C72.76 74.2209 72.6598 74.2393 72.5261 74.2393H71.553V74.2356ZM72.4963 74.2356C72.3663 74.2356 72.2846 74.2172 72.2475 74.1766C72.2104 74.136 72.1881 74.0733 72.1881 73.9847C72.1881 73.8703 72.2066 73.8002 72.2401 73.7817C72.2772 73.7633 72.3589 73.7522 72.4963 73.7522H73.4694C73.5994 73.7522 73.6923 73.767 73.7591 73.7928C73.8223 73.8186 73.8557 73.874 73.8557 73.9626C73.8557 74.0733 73.826 74.1471 73.7628 74.184C73.7034 74.2209 73.6031 74.2393 73.4694 74.2393H72.4963V74.2356ZM73.4397 74.2356C73.3097 74.2356 73.228 74.2172 73.1909 74.1766C73.1537 74.136 73.1315 74.0733 73.1315 73.9847C73.1315 73.8703 73.15 73.8002 73.1835 73.7817C73.2206 73.7633 73.3023 73.7522 73.4397 73.7522H74.4128C74.5428 73.7522 74.6357 73.767 74.7025 73.7928C74.7657 73.8186 74.7991 73.874 74.7991 73.9626C74.7991 74.0733 74.7694 74.1471 74.7062 74.184C74.6468 74.2209 74.5465 74.2393 74.4128 74.2393H73.4397V74.2356ZM74.3831 74.2356C74.2531 74.2356 74.1714 74.2172 74.1342 74.1766C74.0971 74.136 74.0748 74.0733 74.0748 73.9847C74.0748 73.8703 74.0934 73.8002 74.1268 73.7817C74.1639 73.7633 74.2457 73.7522 74.3831 73.7522H75.3562C75.4862 73.7522 75.579 73.767 75.6459 73.7928C75.709 73.8186 75.7424 73.874 75.7424 73.9626C75.7424 74.0733 75.7127 74.1471 75.6496 74.184C75.5901 74.2209 75.4899 74.2393 75.3562 74.2393H74.3831V74.2356ZM74.9513 73.9921C74.9513 73.8814 74.981 73.8149 75.0442 73.7891C75.1036 73.7633 75.2039 73.7485 75.3376 73.7485H76.5298V72.4569C76.5298 71.8407 76.6821 71.372 76.9904 71.0583C77.2987 70.7447 77.6998 70.586 78.1938 70.586C78.7583 70.586 79.1817 70.741 79.4677 71.0509C79.7537 71.3609 79.8948 71.8111 79.8948 72.4053C79.8948 72.671 79.8502 72.9219 79.7648 73.1618C79.6794 73.4016 79.5754 73.5972 79.4602 73.7448H80.6042C80.8679 73.7448 80.9979 73.8297 80.9979 73.9958C80.9979 74.0843 80.9644 74.1434 80.8976 74.1766C80.8307 74.2098 80.7305 74.2283 80.6042 74.2283H79.5642C79.6348 74.2984 79.6942 74.3833 79.7388 74.4866C79.7834 74.5899 79.8057 74.7006 79.8057 74.815C79.8057 74.9589 79.776 75.0992 79.7202 75.2357C79.6608 75.3722 79.568 75.494 79.438 75.601C79.308 75.708 79.1371 75.7929 78.9291 75.8593C78.7212 75.9258 78.4649 75.959 78.164 75.959C77.5735 75.959 77.1538 75.8557 76.9049 75.6527C76.6561 75.446 76.5298 75.1619 76.5298 74.8002V74.2283H75.3376C75.0813 74.2283 74.9513 74.1471 74.9513 73.9847V73.9921ZM78.1789 71.0731C77.8372 71.0731 77.5661 71.1838 77.3618 71.4015C77.1575 71.6229 77.0572 71.9403 77.0572 72.3536V73.7485H78.4092C78.5763 73.7485 78.7212 73.7079 78.84 73.623C78.9589 73.5382 79.0554 73.4312 79.1297 73.302C79.204 73.1728 79.2597 73.0289 79.2931 72.8739C79.3265 72.7189 79.3451 72.5676 79.3451 72.4237C79.3451 72.003 79.2486 71.6709 79.0591 71.431C78.8697 71.1912 78.5726 71.0731 78.1752 71.0731H78.1789ZM78.1826 75.4829C78.5726 75.4829 78.8511 75.4313 79.0108 75.328C79.1705 75.2246 79.2523 75.0696 79.2523 74.8593C79.2523 74.7707 79.2374 74.6895 79.2077 74.612C79.178 74.5345 79.1223 74.4681 79.0405 74.4128C78.9551 74.3574 78.84 74.3131 78.6877 74.2836C78.5354 74.2504 78.3386 74.2356 78.0972 74.2356H77.0572V74.7892C77.0572 75.0622 77.1501 75.2431 77.3395 75.339C77.5289 75.435 77.8112 75.4829 78.1826 75.4829ZM80.5968 74.2356C80.4668 74.2356 80.3851 74.2172 80.3479 74.1766C80.3108 74.136 80.2885 74.0733 80.2885 73.9847C80.2885 73.8703 80.3071 73.8002 80.3405 73.7817C80.3776 73.7633 80.4594 73.7522 80.5968 73.7522H81.5699C81.6999 73.7522 81.7927 73.767 81.8596 73.7928C81.9227 73.8186 81.9561 73.874 81.9561 73.9626C81.9561 74.0733 81.9264 74.1471 81.8633 74.184C81.8039 74.2209 81.7036 74.2393 81.5699 74.2393H80.5968V74.2356ZM81.5513 74.2356C81.295 74.2356 81.165 74.1618 81.165 74.0105C81.165 73.8887 81.1947 73.8149 81.2579 73.7891C81.3173 73.7633 81.4176 73.7485 81.5513 73.7485H84.4594C84.6526 73.7485 84.8048 73.7338 84.9163 73.7042C85.0277 73.6747 85.1168 73.6267 85.1762 73.5529C85.2356 73.4791 85.2765 73.3869 85.2914 73.2725C85.3062 73.1581 85.3136 73.0142 85.3136 72.8407C85.3136 72.5676 85.2914 72.3241 85.2431 72.11C85.1948 71.8923 85.1131 71.7115 84.998 71.5602C84.8828 71.4089 84.7306 71.2945 84.5449 71.2133C84.3591 71.1321 84.1289 71.0915 83.8503 71.0915C83.6238 71.0915 83.4121 71.1284 83.2041 71.1986C82.9998 71.2724 82.8141 71.3978 82.6469 71.575C82.6098 71.6266 82.5652 71.634 82.5133 71.5934L82.2532 71.3867C82.1938 71.3572 82.1864 71.3167 82.2235 71.265C82.3907 71.0731 82.6024 70.9144 82.8624 70.7852C83.1223 70.6561 83.4529 70.5897 83.8578 70.5897C84.2626 70.5897 84.6265 70.6561 84.894 70.7852C85.1614 70.9144 85.3657 71.0842 85.5105 71.2908C85.6554 71.4975 85.7557 71.7336 85.8076 71.9993C85.8596 72.265 85.8894 72.5344 85.8894 72.8038C85.8894 73.0732 85.8708 73.2835 85.8336 73.4644C85.7965 73.6452 85.7296 73.7928 85.6331 73.9072C85.5402 74.0179 85.4102 74.1028 85.2468 74.1544C85.0834 74.2061 84.8791 74.2319 84.6265 74.2319H81.5476L81.5513 74.2356ZM83.7352 75.6379C83.672 75.6379 83.6386 75.6084 83.6386 75.5531V75.0327C83.6386 74.9737 83.672 74.9442 83.7352 74.9442H84.2366C84.2997 74.9442 84.3331 74.9737 84.3331 75.0327V75.5531C84.3331 75.6121 84.2997 75.6379 84.2366 75.6379H83.7352ZM91.7242 73.8002C91.6462 73.9552 91.5273 74.0659 91.3676 74.1323C91.2079 74.1987 90.9925 74.2319 90.7214 74.2319H86.9961C86.933 74.2319 86.8996 74.2024 86.8996 74.1434V73.8334C86.8996 73.7743 86.933 73.7485 86.9961 73.7485H89.076V69.6523C89.076 69.5933 89.1095 69.5638 89.1726 69.5638H89.5106C89.5737 69.5638 89.6072 69.5933 89.6072 69.6523V73.7485H90.8588C91.0185 73.7485 91.1373 73.7153 91.2116 73.6489C91.2859 73.5825 91.3231 73.4644 91.3231 73.2909V68.4309C91.3231 68.3718 91.3565 68.346 91.4196 68.346H91.7576C91.8207 68.346 91.8541 68.3755 91.8541 68.4309V73.2282C91.8541 73.4053 91.947 73.5382 92.129 73.623C92.311 73.7079 92.5301 73.7485 92.779 73.7485H92.8272C92.9572 73.7485 93.0501 73.7633 93.117 73.7965C93.1801 73.8297 93.2135 73.8851 93.2135 73.9662C93.2135 74.0991 93.1838 74.1766 93.1207 74.1987C93.0612 74.2209 92.9609 74.2319 92.8272 74.2319C92.5635 74.2319 92.3407 74.2061 92.1587 74.1544C91.9767 74.1028 91.8319 73.9847 91.7316 73.8002H91.7242ZM88.7789 68.6744C88.7269 68.6006 88.686 68.5194 88.6489 68.4309C88.6118 68.346 88.5969 68.2353 88.5969 68.1024C88.5969 68.0286 88.6118 67.9437 88.6415 67.8515C88.6712 67.7592 88.7195 67.6707 88.79 67.5858C88.8606 67.5009 88.9572 67.4308 89.0797 67.3717C89.2023 67.3127 89.3546 67.2832 89.5403 67.2832C89.6889 67.2832 89.83 67.309 89.9674 67.3644C90.1048 67.4197 90.2088 67.4972 90.2794 67.5932C90.298 67.6264 90.2906 67.6596 90.2608 67.6891L90.116 67.7998C90.0826 67.8293 90.0491 67.8257 90.0083 67.7924C89.9488 67.7334 89.8783 67.6891 89.7929 67.6522C89.7074 67.619 89.6071 67.6006 89.4994 67.6006C89.3323 67.6006 89.2023 67.6522 89.1094 67.7555C89.0166 67.8589 88.9683 67.988 88.9683 68.1356C88.9683 68.2463 88.9981 68.3497 89.0612 68.4419C89.1243 68.5342 89.1874 68.6117 89.258 68.6633H90.2683C90.3054 68.6633 90.3277 68.6855 90.3277 68.7224V68.929C90.3277 68.9696 90.3091 68.9881 90.2683 68.9881H88.4112C88.3741 68.9881 88.3518 68.9696 88.3518 68.929V68.7224C88.3518 68.6818 88.3704 68.6633 88.4112 68.6633H88.7752L88.7789 68.6744ZM92.8198 74.2356C92.6899 74.2356 92.597 74.2209 92.5301 74.1913C92.4633 74.1618 92.4336 74.0991 92.4336 73.9995C92.4336 73.8887 92.4633 73.8223 92.5264 73.7928C92.5858 73.7633 92.6861 73.7485 92.8198 73.7485H93.5218C93.6815 73.7485 93.804 73.7153 93.8932 73.6452C93.9823 73.5751 94.0232 73.457 94.0232 73.2909V68.4309C94.0232 68.3718 94.0566 68.346 94.1198 68.346H94.4577C94.5209 68.346 94.5543 68.3755 94.5543 68.4309V73.1433C94.5543 73.3278 94.5394 73.4902 94.506 73.6267C94.4726 73.767 94.4169 73.8814 94.3315 73.9699C94.2498 74.0585 94.1346 74.1249 93.9898 74.1692C93.8449 74.2135 93.6592 74.2356 93.4252 74.2356H92.8198ZM100.712 70.5897V70.2169C100.712 70.1579 100.746 70.1321 100.809 70.1321H101.147C101.21 70.1321 101.243 70.1616 101.243 70.2169V73.2909C101.243 73.4644 101.281 73.5825 101.355 73.6489C101.429 73.7153 101.544 73.7485 101.708 73.7485H102.198C102.328 73.7485 102.424 73.767 102.488 73.8002C102.551 73.8334 102.584 73.8998 102.584 73.9995C102.584 74.1139 102.554 74.184 102.491 74.2024C102.432 74.2209 102.332 74.2319 102.198 74.2319H101.678C101.563 74.2319 101.448 74.2209 101.333 74.2024C101.217 74.184 101.113 74.1471 101.024 74.0954C100.935 74.0437 100.861 73.9699 100.801 73.8703C100.742 73.7707 100.716 73.6452 100.716 73.4902C100.601 73.5935 100.456 73.6747 100.281 73.7374C100.107 73.7965 99.8803 73.8297 99.5981 73.8297C99.1152 73.8297 98.7326 73.7042 98.4467 73.4533C98.1607 73.2024 98.0196 72.8149 98.0196 72.2982C98.0196 71.9883 98.0641 71.7226 98.1496 71.5048C98.235 71.2871 98.3575 71.1137 98.5135 70.9771C98.6695 70.8406 98.8552 70.7447 99.0706 70.6819C99.2861 70.6229 99.5201 70.5897 99.7763 70.5897H100.709H100.712ZM99.6278 73.3426C100.04 73.3426 100.322 73.2577 100.478 73.0917C100.634 72.9256 100.712 72.6968 100.712 72.409V71.0768H99.676C99.3269 71.0768 99.0521 71.1653 98.8478 71.3462C98.6435 71.527 98.5432 71.8443 98.5432 72.2982C98.5432 72.6673 98.6361 72.9367 98.8181 73.099C99.0001 73.2651 99.2712 73.3463 99.624 73.3463L99.6278 73.3426ZM98.8255 69.549C98.7624 69.549 98.7289 69.5195 98.7289 69.4641V68.9438C98.7289 68.8848 98.7624 68.8552 98.8255 68.8552H99.3269C99.39 68.8552 99.4235 68.8848 99.4235 68.9438V69.4641C99.4235 69.5232 99.39 69.549 99.3269 69.549H98.8255ZM100.059 69.549C99.9955 69.549 99.962 69.5195 99.962 69.4641V68.9438C99.962 68.8848 99.9955 68.8552 100.059 68.8552H100.56C100.623 68.8552 100.657 68.8848 100.657 68.9438V69.4641C100.657 69.5232 100.623 69.549 100.56 69.549H100.059ZM102.187 74.2356C102.057 74.2356 101.975 74.2172 101.938 74.1766C101.901 74.136 101.878 74.0733 101.878 73.9847C101.878 73.8703 101.897 73.8002 101.93 73.7817C101.964 73.7633 102.049 73.7522 102.187 73.7522H103.16C103.29 73.7522 103.386 73.767 103.45 73.7928C103.513 73.8186 103.546 73.874 103.546 73.9626C103.546 74.0733 103.516 74.1471 103.453 74.184C103.394 74.2209 103.294 74.2393 103.16 74.2393H102.187V74.2356ZM104.909 73.1027C104.909 73.3205 104.995 73.4865 105.165 73.5935C105.336 73.7005 105.563 73.7522 105.845 73.7522H105.905C106.035 73.7522 106.127 73.767 106.194 73.8002C106.257 73.8334 106.291 73.8924 106.291 73.9847C106.291 74.077 106.261 74.1434 106.205 74.1803C106.146 74.2172 106.049 74.2356 105.908 74.2356C105.637 74.2356 105.407 74.2098 105.214 74.1544C105.021 74.0991 104.879 73.9736 104.79 73.778C104.712 73.9183 104.612 74.029 104.482 74.1102C104.352 74.195 104.166 74.2356 103.925 74.2356H103.145C103.022 74.2356 102.933 74.2209 102.881 74.1877C102.826 74.1544 102.8 74.0954 102.8 74.0031C102.8 73.9035 102.826 73.8371 102.878 73.8039C102.93 73.7707 103.019 73.7522 103.149 73.7522H103.869C103.992 73.7522 104.088 73.7374 104.159 73.7079C104.229 73.6784 104.282 73.6341 104.311 73.5751C104.345 73.516 104.363 73.4385 104.374 73.3463C104.386 73.254 104.389 73.147 104.389 73.0252V70.8332C104.389 70.7742 104.423 70.7483 104.486 70.7483H104.824C104.887 70.7483 104.92 70.7779 104.92 70.8332V73.1027H104.909ZM103.628 75.6564C103.565 75.6564 103.531 75.6269 103.531 75.5678V75.0475C103.531 74.9884 103.565 74.9626 103.628 74.9626H104.129C104.192 74.9626 104.226 74.9921 104.226 75.0475V75.5678C104.226 75.6269 104.192 75.6564 104.129 75.6564H103.628ZM104.861 75.6564C104.798 75.6564 104.764 75.6269 104.764 75.5678V75.0475C104.764 74.9884 104.798 74.9626 104.861 74.9626H105.362C105.425 74.9626 105.459 74.9921 105.459 75.0475V75.5678C105.459 75.6269 105.425 75.6564 105.362 75.6564H104.861ZM105.89 74.2356C105.76 74.2356 105.678 74.2172 105.641 74.1766C105.604 74.136 105.581 74.0733 105.581 73.9847C105.581 73.8703 105.6 73.8002 105.633 73.7817C105.667 73.7633 105.752 73.7522 105.89 73.7522H106.863C106.993 73.7522 107.089 73.767 107.153 73.7928C107.216 73.8186 107.249 73.874 107.249 73.9626C107.249 74.0733 107.219 74.1471 107.156 74.184C107.097 74.2209 106.997 74.2393 106.863 74.2393H105.89V74.2356ZM106.833 74.2356C106.703 74.2356 106.621 74.2172 106.584 74.1766C106.547 74.136 106.525 74.0733 106.525 73.9847C106.525 73.8703 106.543 73.8002 106.577 73.7817C106.61 73.7633 106.696 73.7522 106.833 73.7522H107.806C107.936 73.7522 108.033 73.767 108.096 73.7928C108.159 73.8186 108.192 73.874 108.192 73.9626C108.192 74.0733 108.163 74.1471 108.1 74.184C108.04 74.2209 107.94 74.2393 107.806 74.2393H106.833V74.2356ZM107.776 74.2356C107.646 74.2356 107.565 74.2172 107.528 74.1766C107.491 74.136 107.468 74.0733 107.468 73.9847C107.468 73.8703 107.487 73.8002 107.52 73.7817C107.554 73.7633 107.639 73.7522 107.776 73.7522H108.75C108.88 73.7522 108.976 73.767 109.039 73.7928C109.102 73.8186 109.136 73.874 109.136 73.9626C109.136 74.0733 109.106 74.1471 109.043 74.184C108.984 74.2209 108.883 74.2393 108.75 74.2393H107.776V74.2356ZM108.72 74.2356C108.59 74.2356 108.508 74.2172 108.471 74.1766C108.434 74.136 108.412 74.0733 108.412 73.9847C108.412 73.8703 108.43 73.8002 108.464 73.7817C108.497 73.7633 108.582 73.7522 108.72 73.7522H109.693C109.823 73.7522 109.92 73.767 109.983 73.7928C110.046 73.8186 110.079 73.874 110.079 73.9626C110.079 74.0733 110.049 74.1471 109.986 74.184C109.927 74.2209 109.827 74.2393 109.693 74.2393H108.72V74.2356ZM109.663 74.2356C109.533 74.2356 109.452 74.2172 109.414 74.1766C109.377 74.136 109.355 74.0733 109.355 73.9847C109.355 73.8703 109.374 73.8002 109.407 73.7817C109.44 73.7633 109.526 73.7522 109.663 73.7522H110.636C110.766 73.7522 110.863 73.767 110.926 73.7928C110.989 73.8186 111.023 73.874 111.023 73.9626C111.023 74.0733 110.993 74.1471 110.93 74.184C110.87 74.2209 110.77 74.2393 110.636 74.2393H109.663V74.2356ZM110.618 74.2356C110.488 74.2356 110.395 74.2209 110.328 74.1913C110.265 74.1618 110.232 74.0991 110.232 73.9995C110.232 73.8887 110.261 73.8223 110.324 73.7928C110.384 73.7633 110.484 73.7485 110.618 73.7485H111.32C111.479 73.7485 111.602 73.7153 111.691 73.6452C111.777 73.5751 111.821 73.457 111.821 73.2909V68.4309C111.821 68.3718 111.855 68.346 111.918 68.346H112.256C112.319 68.346 112.352 68.3755 112.352 68.4309V73.1433C112.352 73.3278 112.337 73.4902 112.304 73.6267C112.271 73.767 112.215 73.8814 112.129 73.9699C112.048 74.0585 111.933 74.1249 111.788 74.1692C111.643 74.2135 111.457 74.2356 111.223 74.2356H110.618ZM114.466 75.9332C114.402 75.9332 114.369 75.9036 114.369 75.8483V75.5383C114.369 75.4792 114.402 75.4497 114.466 75.4497H115.639C115.955 75.4497 116.185 75.3981 116.337 75.2947C116.49 75.1914 116.564 74.9848 116.564 74.6711V74.2393H115.476C115.208 74.2393 114.963 74.2098 114.744 74.1508C114.525 74.0917 114.339 73.9995 114.18 73.8666C114.024 73.7338 113.901 73.5566 113.819 73.3352C113.738 73.1138 113.693 72.837 113.693 72.5086C113.693 72.1949 113.738 71.9218 113.827 71.682C113.916 71.4421 114.038 71.2428 114.194 71.0842C114.35 70.9255 114.532 70.8037 114.74 70.7188C114.948 70.6339 115.175 70.5934 115.416 70.5934C115.985 70.5934 116.408 70.7447 116.679 71.0509C116.95 71.3572 117.088 71.8259 117.088 72.4532V74.6637C117.088 75.1139 116.984 75.4387 116.779 75.6379C116.575 75.8372 116.248 75.9368 115.799 75.9368H114.462L114.466 75.9332ZM115.428 71.0731C115.075 71.0731 114.792 71.1949 114.577 71.4384C114.362 71.682 114.254 72.0436 114.254 72.5197C114.254 72.7522 114.276 72.944 114.324 73.099C114.373 73.254 114.447 73.3795 114.551 73.4754C114.655 73.5714 114.781 73.6415 114.937 73.6821C115.09 73.7264 115.272 73.7485 115.476 73.7485H116.564V72.468C116.564 72.0252 116.479 71.6783 116.304 71.4384C116.129 71.1949 115.84 71.0731 115.428 71.0731ZM121.868 73.0917C121.868 73.3131 121.953 73.4754 122.124 73.5862C122.295 73.6969 122.521 73.7522 122.804 73.7522H122.863C122.993 73.7522 123.086 73.7707 123.153 73.8039C123.216 73.8371 123.249 73.9035 123.249 74.0031C123.249 74.1028 123.22 74.1655 123.157 74.195C123.097 74.2246 122.997 74.2393 122.863 74.2393C122.592 74.2393 122.354 74.2061 122.143 74.1434C121.931 74.0806 121.786 73.9441 121.708 73.7374C121.619 73.922 121.485 74.0511 121.303 74.1286C121.125 74.2024 120.891 74.2393 120.601 74.2393H118.484C118.421 74.2393 118.388 74.2098 118.388 74.1508V73.8408C118.388 73.7817 118.421 73.7559 118.484 73.7559H120.408C120.601 73.7559 120.757 73.7411 120.876 73.7116C120.995 73.6821 121.084 73.6341 121.147 73.5677C121.207 73.5013 121.247 73.4127 121.266 73.2983C121.285 73.1876 121.296 73.0474 121.296 72.8776V72.0362C121.296 71.7115 121.199 71.4716 121.006 71.313C120.813 71.1543 120.505 71.0768 120.081 71.0768H118.956C118.893 71.0768 118.859 71.0473 118.859 70.9882V70.6782C118.859 70.6192 118.893 70.5897 118.956 70.5897H120.245C120.49 70.5897 120.713 70.6192 120.913 70.6782C121.114 70.7373 121.288 70.8258 121.429 70.9439C121.571 71.062 121.678 71.2133 121.756 71.3978C121.834 71.5823 121.871 71.8037 121.871 72.0658V73.0953L121.868 73.0917ZM122.848 74.2356C122.718 74.2356 122.637 74.2172 122.599 74.1766C122.562 74.136 122.54 74.0733 122.54 73.9847C122.54 73.8703 122.559 73.8002 122.592 73.7817C122.625 73.7633 122.711 73.7522 122.848 73.7522H123.821C123.951 73.7522 124.048 73.767 124.111 73.7928C124.174 73.8186 124.208 73.874 124.208 73.9626C124.208 74.0733 124.178 74.1471 124.115 74.184C124.055 74.2209 123.955 74.2393 123.821 74.2393H122.848V74.2356ZM123.799 74.2356C123.669 74.2356 123.576 74.2209 123.509 74.1913C123.446 74.1618 123.413 74.0991 123.413 73.9995C123.413 73.8887 123.443 73.8223 123.506 73.7928C123.565 73.7633 123.665 73.7485 123.799 73.7485H124.501C124.661 73.7485 124.783 73.7153 124.872 73.6452C124.958 73.5751 125.002 73.457 125.002 73.2909V68.4309C125.002 68.3718 125.036 68.346 125.099 68.346H125.437C125.5 68.346 125.534 68.3755 125.534 68.4309V73.1433C125.534 73.3278 125.519 73.4902 125.485 73.6267C125.452 73.767 125.396 73.8814 125.311 73.9699C125.229 74.0585 125.114 74.1249 124.969 74.1692C124.824 74.2135 124.638 74.2356 124.404 74.2356H123.799ZM127.506 74.1471C127.506 74.2061 127.472 74.2356 127.409 74.2356H127.071C127.008 74.2356 126.975 74.2061 126.975 74.1471V68.4309C126.975 68.3718 127.008 68.346 127.071 68.346H127.409C127.472 68.346 127.506 68.3755 127.506 68.4309V74.1471ZM134.86 71.5934C134.86 71.5344 134.893 71.5048 134.956 71.5048H135.294C135.357 71.5048 135.391 71.5344 135.391 71.5934V73.099C135.391 73.3168 135.465 73.4828 135.617 73.5898C135.77 73.6969 135.978 73.7485 136.249 73.7485H136.297C136.449 73.7485 136.553 73.7633 136.605 73.7965C136.657 73.8297 136.683 73.8924 136.683 73.9921C136.683 74.0917 136.654 74.1544 136.59 74.1877C136.531 74.2209 136.431 74.2356 136.297 74.2356C136.104 74.2356 135.933 74.2172 135.781 74.1766C135.628 74.136 135.498 74.0659 135.391 73.9589V74.0733C135.391 74.339 135.346 74.5825 135.261 74.8039C135.175 75.0254 135.042 75.2172 134.867 75.3796C134.689 75.542 134.462 75.6675 134.187 75.7597C133.913 75.852 133.586 75.8999 133.214 75.8999C132.869 75.8999 132.557 75.8557 132.286 75.7708C132.015 75.6859 131.784 75.5604 131.602 75.4017C131.42 75.2431 131.279 75.0512 131.183 74.8261C131.086 74.601 131.038 74.3537 131.038 74.0806C131.038 73.7153 131.105 73.3869 131.238 73.0843C131.372 72.7854 131.517 72.5344 131.673 72.3388C131.699 72.3056 131.743 72.3056 131.807 72.3388L132.104 72.5123C132.156 72.5418 132.163 72.5787 132.133 72.623C132.003 72.8038 131.885 73.0142 131.77 73.2614C131.654 73.505 131.595 73.7633 131.595 74.029C131.595 74.2947 131.651 74.5235 131.758 74.7006C131.866 74.8777 132.003 75.0143 132.171 75.1176C132.338 75.2172 132.516 75.291 132.713 75.3316C132.91 75.3722 133.095 75.3907 133.274 75.3907C133.493 75.3907 133.697 75.3685 133.894 75.3206C134.087 75.2726 134.258 75.1988 134.399 75.0955C134.54 74.9921 134.652 74.8593 134.733 74.6932C134.815 74.5272 134.86 74.3279 134.86 74.0917V71.5971V71.5934ZM133.415 71.5048C133.352 71.5048 133.318 71.4753 133.318 71.42V70.8996C133.318 70.8406 133.352 70.8111 133.415 70.8111H133.801C133.864 70.8111 133.898 70.8406 133.898 70.8996V71.42C133.898 71.479 133.864 71.5048 133.801 71.5048H133.415ZM136.282 74.2319C136.152 74.2319 136.07 74.2135 136.033 74.1729C135.996 74.1323 135.974 74.0696 135.974 73.981C135.974 73.8666 135.992 73.7965 136.026 73.778C136.059 73.7596 136.145 73.7485 136.282 73.7485H137.255C137.385 73.7485 137.482 73.7633 137.545 73.7891C137.608 73.8149 137.641 73.8703 137.641 73.9589C137.641 74.0696 137.612 74.1434 137.549 74.1803C137.489 74.2172 137.389 74.2356 137.255 74.2356H136.282V74.2319ZM137.225 74.2319C137.095 74.2319 137.014 74.2135 136.977 74.1729C136.939 74.1323 136.917 74.0696 136.917 73.981C136.917 73.8666 136.936 73.7965 136.969 73.778C137.003 73.7596 137.088 73.7485 137.225 73.7485H138.199C138.329 73.7485 138.425 73.7633 138.488 73.7891C138.551 73.8149 138.585 73.8703 138.585 73.9589C138.585 74.0696 138.555 74.1434 138.492 74.1803C138.433 74.2172 138.332 74.2356 138.199 74.2356H137.225V74.2319ZM139.948 73.099C139.948 73.3168 140.033 73.4828 140.204 73.5898C140.375 73.6969 140.602 73.7485 140.884 73.7485H140.943C141.073 73.7485 141.166 73.7633 141.233 73.7965C141.296 73.8297 141.33 73.8887 141.33 73.981C141.33 74.0733 141.3 74.1397 141.244 74.1766C141.185 74.2135 141.088 74.2319 140.947 74.2319C140.676 74.2319 140.446 74.2061 140.252 74.1508C140.059 74.0954 139.918 73.9699 139.829 73.7744C139.751 73.9146 139.651 74.0253 139.521 74.1065C139.391 74.1913 139.205 74.2319 138.964 74.2319H138.184C138.061 74.2319 137.972 74.2172 137.92 74.184C137.864 74.1508 137.838 74.0917 137.838 73.9995C137.838 73.8998 137.864 73.8334 137.916 73.8002C137.968 73.767 138.057 73.7485 138.187 73.7485H138.908C139.031 73.7485 139.127 73.7338 139.198 73.7042C139.268 73.6747 139.32 73.6304 139.35 73.5714C139.383 73.5123 139.402 73.4349 139.413 73.3426C139.424 73.2503 139.428 73.1433 139.428 73.0215V70.8295C139.428 70.7705 139.461 70.7447 139.525 70.7447H139.862C139.926 70.7447 139.959 70.7742 139.959 70.8295V73.099H139.948ZM138.667 75.6527C138.603 75.6527 138.57 75.6232 138.57 75.5641V75.0438C138.57 74.9847 138.603 74.9589 138.667 74.9589H139.168C139.231 74.9589 139.265 74.9884 139.265 75.0438V75.5641C139.265 75.6232 139.231 75.6527 139.168 75.6527H138.667ZM139.9 75.6527C139.836 75.6527 139.803 75.6232 139.803 75.5641V75.0438C139.803 74.9847 139.836 74.9589 139.9 74.9589H140.401C140.464 74.9589 140.498 74.9884 140.498 75.0438V75.5641C140.498 75.6232 140.464 75.6527 140.401 75.6527H139.9ZM140.928 74.2319C140.798 74.2319 140.717 74.2135 140.68 74.1729C140.642 74.1323 140.62 74.0696 140.62 73.981C140.62 73.8666 140.639 73.7965 140.672 73.778C140.706 73.7596 140.791 73.7485 140.928 73.7485H141.902C142.031 73.7485 142.128 73.7633 142.191 73.7891C142.254 73.8149 142.288 73.8703 142.288 73.9589C142.288 74.0696 142.258 74.1434 142.195 74.1803C142.135 74.2172 142.035 74.2356 141.902 74.2356H140.928V74.2319ZM141.872 74.2319C141.742 74.2319 141.66 74.2135 141.623 74.1729C141.586 74.1323 141.564 74.0696 141.564 73.981C141.564 73.8666 141.582 73.7965 141.616 73.778C141.649 73.7596 141.734 73.7485 141.872 73.7485H142.845C142.975 73.7485 143.071 73.7633 143.135 73.7891C143.198 73.8149 143.231 73.8703 143.231 73.9589C143.231 74.0696 143.201 74.1434 143.138 74.1803C143.079 74.2172 142.979 74.2356 142.845 74.2356H141.872V74.2319ZM142.815 74.2319C142.685 74.2319 142.603 74.2135 142.566 74.1729C142.529 74.1323 142.507 74.0696 142.507 73.981C142.507 73.8666 142.525 73.7965 142.559 73.778C142.592 73.7596 142.678 73.7485 142.815 73.7485H143.788C143.918 73.7485 144.015 73.7633 144.078 73.7891C144.141 73.8149 144.175 73.8703 144.175 73.9589C144.175 74.0696 144.145 74.1434 144.082 74.1803C144.022 74.2172 143.922 74.2356 143.788 74.2356H142.815V74.2319ZM143.759 74.2319C143.629 74.2319 143.547 74.2135 143.51 74.1729C143.473 74.1323 143.45 74.0696 143.45 73.981C143.45 73.8666 143.469 73.7965 143.502 73.778C143.536 73.7596 143.621 73.7485 143.759 73.7485H144.732C144.862 73.7485 144.958 73.7633 145.021 73.7891C145.084 73.8149 145.118 73.8703 145.118 73.9589C145.118 74.0696 145.088 74.1434 145.025 74.1803C144.966 74.2172 144.865 74.2356 144.732 74.2356H143.759V74.2319ZM144.702 74.2319C144.572 74.2319 144.49 74.2135 144.453 74.1729C144.416 74.1323 144.394 74.0696 144.394 73.981C144.394 73.8666 144.412 73.7965 144.446 73.778C144.479 73.7596 144.565 73.7485 144.702 73.7485H145.675C145.805 73.7485 145.902 73.7633 145.965 73.7891C146.028 73.8149 146.061 73.8703 146.061 73.9589C146.061 74.0696 146.032 74.1434 145.968 74.1803C145.909 74.2172 145.809 74.2356 145.675 74.2356H144.702V74.2319ZM145.645 74.2319C145.515 74.2319 145.434 74.2135 145.396 74.1729C145.359 74.1323 145.337 74.0696 145.337 73.981C145.337 73.8666 145.356 73.7965 145.389 73.778C145.422 73.7596 145.508 73.7485 145.645 73.7485H146.618C146.748 73.7485 146.845 73.7633 146.908 73.7891C146.971 73.8149 147.005 73.8703 147.005 73.9589C147.005 74.0696 146.975 74.1434 146.912 74.1803C146.852 74.2172 146.752 74.2356 146.618 74.2356H145.645V74.2319ZM146.589 74.2319C146.459 74.2319 146.377 74.2135 146.34 74.1729C146.303 74.1323 146.28 74.0696 146.28 73.981C146.28 73.8666 146.299 73.7965 146.332 73.778C146.366 73.7596 146.451 73.7485 146.589 73.7485H147.562C147.692 73.7485 147.788 73.7633 147.851 73.7891C147.915 73.8149 147.948 73.8703 147.948 73.9589C147.948 74.0696 147.918 74.1434 147.855 74.1803C147.796 74.2172 147.695 74.2356 147.562 74.2356H146.589V74.2319ZM147.532 74.2319C147.402 74.2319 147.32 74.2135 147.283 74.1729C147.246 74.1323 147.224 74.0696 147.224 73.981C147.224 73.8666 147.242 73.7965 147.276 73.778C147.309 73.7596 147.395 73.7485 147.532 73.7485H148.505C148.635 73.7485 148.732 73.7633 148.795 73.7891C148.858 73.8149 148.891 73.8703 148.891 73.9589C148.891 74.0696 148.862 74.1434 148.799 74.1803C148.739 74.2172 148.639 74.2356 148.505 74.2356H147.532V74.2319ZM148.475 74.2319C148.345 74.2319 148.264 74.2135 148.227 74.1729C148.189 74.1323 148.167 74.0696 148.167 73.981C148.167 73.8666 148.186 73.7965 148.219 73.778C148.253 73.7596 148.338 73.7485 148.475 73.7485H149.449C149.579 73.7485 149.675 73.7633 149.738 73.7891C149.801 73.8149 149.835 73.8703 149.835 73.9589C149.835 74.0696 149.805 74.1434 149.742 74.1803C149.683 74.2172 149.582 74.2356 149.449 74.2356H148.475V74.2319ZM149.419 74.2319C149.289 74.2319 149.207 74.2135 149.17 74.1729C149.133 74.1323 149.111 74.0696 149.111 73.981C149.111 73.8666 149.129 73.7965 149.163 73.778C149.196 73.7596 149.281 73.7485 149.419 73.7485H150.392C150.522 73.7485 150.618 73.7633 150.682 73.7891C150.745 73.8149 150.778 73.8703 150.778 73.9589C150.778 74.0696 150.748 74.1434 150.685 74.1803C150.626 74.2172 150.526 74.2356 150.392 74.2356H149.419V74.2319ZM152.921 70.741C153.166 70.741 153.389 70.7705 153.59 70.8258C153.79 70.8849 153.965 70.9734 154.106 71.0915C154.247 71.2096 154.355 71.3609 154.433 71.5454C154.511 71.7299 154.548 71.9514 154.548 72.2134V73.088C154.548 73.3094 154.633 73.4717 154.804 73.5825C154.975 73.6932 155.202 73.7485 155.484 73.7485H155.543C155.673 73.7485 155.77 73.767 155.833 73.8002C155.896 73.8334 155.93 73.8998 155.93 73.9995C155.93 74.0991 155.9 74.1618 155.837 74.1913C155.777 74.2209 155.677 74.2356 155.543 74.2356C155.276 74.2356 155.035 74.2024 154.823 74.1397C154.611 74.077 154.466 73.9404 154.388 73.7338C154.299 73.9183 154.162 74.0474 153.983 74.1249C153.805 74.2024 153.571 74.2356 153.281 74.2356H150.373C150.117 74.2356 149.987 74.1544 149.987 73.9921C149.987 73.8777 150.017 73.8076 150.08 73.7854C150.139 73.7633 150.24 73.7522 150.373 73.7522H153.088C153.281 73.7522 153.437 73.7374 153.556 73.7079C153.675 73.6784 153.764 73.6304 153.827 73.564C153.887 73.4976 153.928 73.409 153.946 73.2946C153.965 73.1839 153.976 73.0437 153.976 72.8739V72.1912C153.976 71.8665 153.879 71.6266 153.686 71.4679C153.493 71.3093 153.185 71.2281 152.761 71.2281H151.153C151.09 71.2281 151.057 71.1985 151.057 71.1432V70.8221C151.057 70.7705 151.068 70.7447 151.086 70.7447L153.222 68.4825C153.267 68.4345 153.308 68.4272 153.348 68.4567L153.627 68.656C153.69 68.6966 153.705 68.7372 153.664 68.7777L151.814 70.7447H152.921V70.741ZM155.51 74.2319C155.38 74.2319 155.298 74.2135 155.261 74.1729C155.224 74.1323 155.202 74.0696 155.202 73.981C155.202 73.8666 155.22 73.7965 155.254 73.778C155.287 73.7596 155.373 73.7485 155.51 73.7485H156.483C156.613 73.7485 156.71 73.7633 156.773 73.7891C156.836 73.8149 156.869 73.8703 156.869 73.9589C156.869 74.0696 156.84 74.1434 156.776 74.1803C156.717 74.2172 156.617 74.2356 156.483 74.2356H155.51V74.2319ZM160.959 72.992C160.959 73.1433 160.973 73.2651 161.007 73.3647C161.04 73.4644 161.085 73.5419 161.141 73.5972C161.196 73.6563 161.267 73.6932 161.352 73.7153C161.434 73.7374 161.527 73.7448 161.631 73.7448H161.831C161.958 73.7448 162.054 73.7633 162.117 73.7965C162.18 73.8297 162.214 73.8961 162.214 73.9958C162.214 74.0954 162.184 74.1581 162.121 74.1877C162.062 74.2172 161.961 74.2319 161.828 74.2319H161.664C161.441 74.2319 161.233 74.2024 161.044 74.1397C160.855 74.0807 160.706 73.9662 160.598 73.7965C160.45 73.9773 160.264 74.1028 160.041 74.1766C159.818 74.2504 159.566 74.291 159.283 74.291C159.001 74.291 158.745 74.2541 158.511 74.1766C158.277 74.1028 158.091 73.9773 157.95 73.8039C157.831 73.9958 157.698 74.1139 157.542 74.1581C157.386 74.2061 157.218 74.2283 157.04 74.2283H156.472C156.342 74.2283 156.249 74.2135 156.182 74.184C156.119 74.1544 156.086 74.0917 156.086 73.9921C156.086 73.8777 156.115 73.8076 156.178 73.7817C156.238 73.7559 156.338 73.7411 156.472 73.7411H156.999C157.07 73.7411 157.14 73.7301 157.211 73.7079C157.282 73.6858 157.345 73.6415 157.404 73.5825C157.464 73.5234 157.512 73.4422 157.549 73.3426C157.586 73.243 157.608 73.1212 157.608 72.9699C157.601 72.8998 157.597 72.826 157.594 72.7485C157.594 72.671 157.59 72.5898 157.59 72.5086C157.59 71.2207 158.154 70.5786 159.287 70.5786C159.848 70.5786 160.271 70.7299 160.561 71.0362C160.851 71.3425 160.996 71.8037 160.996 72.4237C160.996 72.4975 160.996 72.5972 160.992 72.7152C160.992 72.8333 160.981 72.9256 160.97 72.9883L160.959 72.992ZM159.28 71.0694C158.879 71.0694 158.585 71.1912 158.407 71.4384C158.229 71.6857 158.14 72.0215 158.14 72.4569C158.14 72.9145 158.229 73.254 158.407 73.4754C158.585 73.6969 158.875 73.8076 159.28 73.8076C159.685 73.8076 159.974 73.6969 160.156 73.4754C160.338 73.254 160.431 72.9145 160.431 72.4569C160.431 72.0289 160.338 71.6931 160.156 71.4421C159.974 71.1949 159.681 71.0694 159.28 71.0694ZM161.805 74.2319C161.675 74.2319 161.594 74.2135 161.556 74.1729C161.519 74.1323 161.497 74.0696 161.497 73.981C161.497 73.8666 161.516 73.7965 161.549 73.778C161.582 73.7596 161.668 73.7485 161.805 73.7485H162.778C162.908 73.7485 163.005 73.7633 163.068 73.7891C163.131 73.8149 163.165 73.8703 163.165 73.9589C163.165 74.0696 163.135 74.1434 163.072 74.1803C163.012 74.2172 162.912 74.2356 162.778 74.2356H161.805V74.2319ZM162.756 74.2319C162.626 74.2319 162.533 74.2209 162.466 74.1987C162.403 74.1766 162.37 74.1176 162.37 74.0253C162.37 73.9109 162.4 73.8334 162.463 73.8002C162.522 73.767 162.622 73.7485 162.756 73.7485H163.451C163.61 73.7485 163.729 73.7153 163.804 73.6489C163.878 73.5825 163.915 73.4644 163.915 73.2909V70.8295C163.915 70.7705 163.945 70.7447 164.008 70.7447H164.349C164.413 70.7447 164.442 70.7742 164.442 70.8295V73.1433C164.442 73.5197 164.357 73.7928 164.186 73.9699C164.015 74.1471 163.729 74.2356 163.324 74.2356H162.756V74.2319ZM163.354 69.8922C163.291 69.8922 163.258 69.8627 163.258 69.8073V69.287C163.258 69.228 163.291 69.1984 163.354 69.1984H163.855C163.919 69.1984 163.952 69.228 163.952 69.287V69.8073C163.952 69.8664 163.919 69.8922 163.855 69.8922H163.354ZM164.587 69.8922C164.524 69.8922 164.491 69.8627 164.491 69.8073V69.287C164.491 69.228 164.524 69.1984 164.587 69.1984H165.089C165.152 69.1984 165.185 69.228 165.185 69.287V69.8073C165.185 69.8664 165.152 69.8922 165.089 69.8922H164.587ZM170.641 70.586V70.2133C170.641 70.1542 170.675 70.1284 170.738 70.1284H171.076C171.139 70.1284 171.172 70.1579 171.172 70.2133V73.2872C171.172 73.4607 171.209 73.5788 171.284 73.6452C171.358 73.7116 171.473 73.7448 171.637 73.7448H172.127C172.257 73.7448 172.353 73.7633 172.416 73.7965C172.48 73.8297 172.513 73.8961 172.513 73.9958C172.513 74.1102 172.483 74.1803 172.42 74.1987C172.361 74.2172 172.26 74.2283 172.127 74.2283H171.607C171.492 74.2283 171.377 74.2172 171.261 74.1987C171.146 74.1803 171.042 74.1434 170.953 74.0917C170.864 74.04 170.79 73.9662 170.73 73.8666C170.671 73.767 170.645 73.6415 170.645 73.4865C170.53 73.5898 170.385 73.671 170.21 73.7338C170.036 73.7928 169.809 73.826 169.527 73.826C169.044 73.826 168.662 73.7005 168.376 73.4496C168.09 73.1987 167.948 72.8112 167.948 72.2946C167.948 71.9846 167.993 71.7189 168.078 71.5012C168.164 71.2834 168.286 71.11 168.442 70.9734C168.598 70.8369 168.784 70.741 169 70.6782C169.215 70.6192 169.449 70.586 169.705 70.586H170.637H170.641ZM169.557 73.3389C169.969 73.3389 170.251 73.254 170.407 73.088C170.563 72.9219 170.641 72.6931 170.641 72.4053V71.0731H169.605C169.256 71.0731 168.981 71.1616 168.78 71.3425C168.576 71.5233 168.476 71.8407 168.476 72.2946C168.476 72.6636 168.569 72.933 168.751 73.0953C168.933 73.2614 169.204 73.3426 169.557 73.3426V73.3389ZM168.754 69.5453C168.691 69.5453 168.658 69.5158 168.658 69.4604V68.9401C168.658 68.8811 168.691 68.8515 168.754 68.8515H169.256C169.319 68.8515 169.352 68.8811 169.352 68.9401V69.4604C169.352 69.5195 169.319 69.5453 169.256 69.5453H168.754ZM169.987 69.5453C169.924 69.5453 169.891 69.5158 169.891 69.4604V68.9401C169.891 68.8811 169.924 68.8515 169.987 68.8515H170.489C170.552 68.8515 170.585 68.8811 170.585 68.9401V69.4604C170.585 69.5195 170.552 69.5453 170.489 69.5453H169.987ZM172.116 74.2319C171.986 74.2319 171.904 74.2135 171.867 74.1729C171.83 74.1323 171.807 74.0696 171.807 73.981C171.807 73.8666 171.826 73.7965 171.859 73.778C171.893 73.7596 171.978 73.7485 172.116 73.7485H173.089C173.219 73.7485 173.315 73.7633 173.378 73.7891C173.442 73.8149 173.475 73.8703 173.475 73.9589C173.475 74.0696 173.445 74.1434 173.382 74.1803C173.323 74.2172 173.222 74.2356 173.089 74.2356H172.116V74.2319ZM173.059 74.2319C172.929 74.2319 172.847 74.2135 172.81 74.1729C172.773 74.1323 172.751 74.0696 172.751 73.981C172.751 73.8666 172.769 73.7965 172.803 73.778C172.836 73.7596 172.922 73.7485 173.059 73.7485H174.032C174.162 73.7485 174.259 73.7633 174.322 73.7891C174.385 73.8149 174.418 73.8703 174.418 73.9589C174.418 74.0696 174.389 74.1434 174.326 74.1803C174.266 74.2172 174.166 74.2356 174.032 74.2356H173.059V74.2319ZM174.002 74.2319C173.872 74.2319 173.791 74.2135 173.754 74.1729C173.716 74.1323 173.694 74.0696 173.694 73.981C173.694 73.8666 173.713 73.7965 173.746 73.778C173.78 73.7596 173.865 73.7485 174.002 73.7485H174.975C175.105 73.7485 175.202 73.7633 175.265 73.7891C175.328 73.8149 175.362 73.8703 175.362 73.9589C175.362 74.0696 175.332 74.1434 175.269 74.1803C175.209 74.2172 175.109 74.2356 174.975 74.2356H174.002V74.2319ZM174.946 74.2319C174.816 74.2319 174.734 74.2135 174.697 74.1729C174.66 74.1323 174.637 74.0696 174.637 73.981C174.637 73.8666 174.656 73.7965 174.689 73.778C174.723 73.7596 174.808 73.7485 174.946 73.7485H175.919C176.049 73.7485 176.145 73.7633 176.209 73.7891C176.272 73.8149 176.305 73.8703 176.305 73.9589C176.305 74.0696 176.275 74.1434 176.212 74.1803C176.153 74.2172 176.053 74.2356 175.919 74.2356H174.946V74.2319ZM175.889 74.2319C175.759 74.2319 175.677 74.2135 175.64 74.1729C175.603 74.1323 175.581 74.0696 175.581 73.981C175.581 73.8666 175.599 73.7965 175.633 73.778C175.67 73.7596 175.752 73.7485 175.889 73.7485H176.862C176.992 73.7485 177.089 73.7633 177.152 73.7891C177.215 73.8149 177.249 73.8703 177.249 73.9589C177.249 74.0696 177.219 74.1434 177.156 74.1803C177.096 74.2172 176.996 74.2356 176.862 74.2356H175.889V74.2319ZM176.833 74.2319C176.703 74.2319 176.621 74.2135 176.584 74.1729C176.547 74.1323 176.524 74.0696 176.524 73.981C176.524 73.8666 176.543 73.7965 176.576 73.778C176.61 73.7596 176.695 73.7485 176.833 73.7485H177.806C177.936 73.7485 178.032 73.7633 178.095 73.7891C178.158 73.8149 178.192 73.8703 178.192 73.9589C178.192 74.0696 178.162 74.1434 178.099 74.1803C178.04 74.2172 177.939 74.2356 177.806 74.2356H176.833V74.2319ZM177.776 74.2319C177.646 74.2319 177.564 74.2135 177.527 74.1729C177.49 74.1323 177.468 74.0696 177.468 73.981C177.468 73.8666 177.486 73.7965 177.52 73.778C177.553 73.7596 177.639 73.7485 177.776 73.7485H178.749C178.879 73.7485 178.976 73.7633 179.039 73.7891C179.102 73.8149 179.135 73.8703 179.135 73.9589C179.135 74.0696 179.106 74.1434 179.042 74.1803C178.983 74.2172 178.883 74.2356 178.749 74.2356H177.776V74.2319ZM179.507 71.2281C179.444 71.2281 179.41 71.1985 179.41 71.1432V70.8221C179.41 70.7705 179.421 70.7447 179.44 70.7447L181.575 68.4825C181.62 68.4345 181.661 68.4272 181.702 68.4567L181.98 68.656C182.043 68.6966 182.058 68.7372 182.017 68.7777L180.168 70.7447H181.275C181.52 70.7447 181.743 70.7742 181.943 70.8295C182.144 70.8886 182.318 70.9771 182.459 71.0952C182.601 71.2133 182.708 71.3646 182.786 71.5491C182.864 71.7336 182.901 71.9551 182.901 72.2171V72.7558C182.901 73.0437 182.879 73.2835 182.835 73.4754C182.79 73.6673 182.716 73.8186 182.608 73.9294C182.5 74.0401 182.363 74.1212 182.196 74.1692C182.025 74.2172 181.813 74.2393 181.557 74.2393H178.727C178.597 74.2393 178.504 74.2246 178.437 74.1913C178.374 74.1581 178.34 74.0954 178.34 73.9958C178.34 73.8924 178.37 73.826 178.433 73.7965C178.493 73.767 178.593 73.7522 178.727 73.7522H181.442C181.635 73.7522 181.791 73.7374 181.91 73.7079C182.029 73.6784 182.118 73.6304 182.181 73.564C182.24 73.4976 182.281 73.409 182.3 73.2946C182.318 73.1839 182.329 73.0437 182.329 72.8739V72.1912C182.329 71.8665 182.233 71.6266 182.04 71.4679C181.847 71.3093 181.538 71.2281 181.115 71.2281H179.507ZM185.108 73.099C185.108 73.3168 185.193 73.4828 185.364 73.5898C185.535 73.6969 185.761 73.7485 186.044 73.7485H186.092C186.222 73.7485 186.315 73.7633 186.381 73.7965C186.445 73.8297 186.478 73.8851 186.478 73.9662C186.478 74.0991 186.448 74.1766 186.385 74.1987C186.326 74.2209 186.225 74.2319 186.092 74.2319C185.88 74.2319 185.694 74.2172 185.535 74.1877C185.375 74.1581 185.234 74.0843 185.111 73.9626V74.6563C185.111 75.0659 185 75.3796 184.773 75.601C184.55 75.8188 184.198 75.9295 183.715 75.9295H183.551C183.488 75.9295 183.455 75.8999 183.455 75.8446V75.5346C183.455 75.4756 183.488 75.446 183.551 75.446H183.774C184.038 75.446 184.238 75.387 184.376 75.2652C184.513 75.1434 184.584 74.9589 184.584 74.7117V70.8295C184.584 70.7705 184.617 70.7447 184.68 70.7447H185.018C185.082 70.7447 185.115 70.7742 185.115 70.8295V73.099H185.108ZM186.081 74.2319C185.951 74.2319 185.869 74.2135 185.832 74.1729C185.795 74.1323 185.772 74.0696 185.772 73.981C185.772 73.8666 185.791 73.7965 185.824 73.778C185.858 73.7596 185.943 73.7485 186.081 73.7485H187.054C187.184 73.7485 187.28 73.7633 187.343 73.7891C187.407 73.8149 187.44 73.8703 187.44 73.9589C187.44 74.0696 187.41 74.1434 187.347 74.1803C187.288 74.2172 187.187 74.2356 187.054 74.2356H186.081V74.2319ZM187.024 74.2319C186.894 74.2319 186.812 74.2135 186.775 74.1729C186.738 74.1323 186.716 74.0696 186.716 73.981C186.716 73.8666 186.734 73.7965 186.768 73.778C186.801 73.7596 186.887 73.7485 187.024 73.7485H187.997C188.127 73.7485 188.224 73.7633 188.287 73.7891C188.35 73.8149 188.383 73.8703 188.383 73.9589C188.383 74.0696 188.354 74.1434 188.29 74.1803C188.231 74.2172 188.131 74.2356 187.997 74.2356H187.024V74.2319ZM187.967 74.2319C187.837 74.2319 187.756 74.2135 187.719 74.1729C187.681 74.1323 187.659 74.0696 187.659 73.981C187.659 73.8666 187.678 73.7965 187.711 73.778C187.745 73.7596 187.83 73.7485 187.967 73.7485H188.94C189.07 73.7485 189.167 73.7633 189.23 73.7891C189.293 73.8149 189.327 73.8703 189.327 73.9589C189.327 74.0696 189.297 74.1434 189.234 74.1803C189.174 74.2172 189.074 74.2356 188.94 74.2356H187.967V74.2319ZM188.911 74.2319C188.781 74.2319 188.699 74.2135 188.662 74.1729C188.625 74.1323 188.602 74.0696 188.602 73.981C188.602 73.8666 188.621 73.7965 188.654 73.778C188.688 73.7596 188.773 73.7485 188.911 73.7485H189.884C190.014 73.7485 190.11 73.7633 190.174 73.7891C190.237 73.8149 190.27 73.8703 190.27 73.9589C190.27 74.0696 190.24 74.1434 190.177 74.1803C190.118 74.2172 190.018 74.2356 189.884 74.2356H188.911V74.2319ZM189.854 74.2319C189.724 74.2319 189.642 74.2135 189.605 74.1729C189.568 74.1323 189.546 74.0696 189.546 73.981C189.546 73.8666 189.564 73.7965 189.598 73.778C189.631 73.7596 189.717 73.7485 189.854 73.7485H190.827C190.957 73.7485 191.054 73.7633 191.117 73.7891C191.18 73.8149 191.213 73.8703 191.213 73.9589C191.213 74.0696 191.184 74.1434 191.121 74.1803C191.061 74.2172 190.961 74.2356 190.827 74.2356H189.854V74.2319ZM190.798 74.2319C190.668 74.2319 190.586 74.2135 190.549 74.1729C190.512 74.1323 190.489 74.0696 190.489 73.981C190.489 73.8666 190.508 73.7965 190.541 73.778C190.575 73.7596 190.66 73.7485 190.798 73.7485H191.771C191.901 73.7485 191.997 73.7633 192.06 73.7891C192.123 73.8149 192.157 73.8703 192.157 73.9589C192.157 74.0696 192.127 74.1434 192.064 74.1803C192.005 74.2172 191.904 74.2356 191.771 74.2356H190.798V74.2319ZM198.333 73.099C198.333 73.3426 198.304 73.5382 198.248 73.6821C198.189 73.8297 198.111 73.9441 198.014 74.0253C197.914 74.1065 197.799 74.1618 197.665 74.1913C197.531 74.2209 197.386 74.2356 197.234 74.2356H196.84C196.662 74.2356 196.487 74.1987 196.313 74.1286C196.142 74.0548 196.012 73.9441 195.93 73.7965C195.852 73.9367 195.745 74.0437 195.604 74.1212C195.462 74.1987 195.262 74.2393 195.006 74.2393H194.564C194.385 74.2393 194.207 74.2024 194.036 74.1323C193.865 74.0622 193.735 73.9478 193.65 73.8002C193.572 73.9404 193.464 74.0474 193.327 74.1249C193.189 74.2024 192.985 74.243 192.714 74.243H191.685C191.589 74.243 191.511 74.2246 191.455 74.1913C191.395 74.1581 191.369 74.1065 191.369 74.0364C191.369 73.922 191.399 73.8445 191.462 73.8113C191.522 73.778 191.622 73.7596 191.756 73.7596H192.747C192.87 73.7596 192.963 73.7448 193.03 73.7116C193.097 73.6784 193.149 73.6341 193.178 73.5714C193.212 73.5123 193.23 73.4312 193.238 73.3389C193.245 73.243 193.249 73.1322 193.249 73.0068V71.6488C193.249 71.5897 193.279 71.5602 193.345 71.5602H193.687C193.75 71.5602 193.784 71.5897 193.784 71.6488V73.1212C193.784 73.3278 193.869 73.4865 194.044 73.5972C194.218 73.7079 194.448 73.7633 194.742 73.7633C194.924 73.7633 195.065 73.7559 195.173 73.7374C195.28 73.719 195.358 73.6858 195.414 73.6304C195.47 73.5751 195.503 73.5013 195.514 73.4016C195.529 73.302 195.533 73.1728 195.533 73.0105V71.6525C195.533 71.5934 195.563 71.5639 195.626 71.5639H195.968C196.031 71.5639 196.06 71.5934 196.06 71.6525V73.1692C196.06 73.3647 196.15 73.516 196.332 73.6157C196.514 73.7153 196.751 73.767 197.048 73.767C197.23 73.767 197.371 73.7559 197.475 73.7374C197.579 73.719 197.654 73.6784 197.702 73.6194C197.75 73.5603 197.78 73.4865 197.795 73.3906C197.806 73.2946 197.813 73.1692 197.813 73.0142V70.848C197.813 70.7889 197.843 70.7631 197.906 70.7631H198.248C198.311 70.7631 198.341 70.7926 198.341 70.848V73.1175L198.333 73.099ZM194.916 69.8959C194.853 69.8959 194.82 69.8664 194.82 69.811V69.2907C194.82 69.2316 194.853 69.2021 194.916 69.2021H195.418C195.481 69.2021 195.514 69.2316 195.514 69.2907V69.811C195.514 69.8701 195.481 69.8959 195.418 69.8959H194.916ZM195.522 68.7888C195.459 68.7888 195.425 68.7593 195.425 68.7002V68.1799C195.425 68.1209 195.459 68.095 195.522 68.095H196.023C196.086 68.095 196.12 68.1246 196.12 68.1799V68.7002C196.12 68.7593 196.086 68.7888 196.023 68.7888H195.522ZM196.146 69.8959C196.083 69.8959 196.049 69.8664 196.049 69.811V69.2907C196.049 69.2316 196.083 69.2021 196.146 69.2021H196.647C196.71 69.2021 196.744 69.2316 196.744 69.2907V69.811C196.744 69.8701 196.71 69.8959 196.647 69.8959H196.146ZM197.929 62.3752H0.405855C0.179296 62.3752 -0.00268555 62.1943 -0.00268555 61.9692C-0.00268555 61.7441 0.179296 61.5633 0.405855 61.5633H197.929C198.155 61.5633 198.337 61.7441 198.337 61.9692C198.337 62.1943 198.155 62.3752 197.929 62.3752Z" fill="#004B7A"></path></svg>